<svg width="14" height="12" viewBox="0 0 14 12" fill="none" xmlns="http://www.w3.org/2000/svg">
<path d="M0.5 1.5H13.5C13.75 1.5 14 1.28125 14 1.03125C14 0.78125 13.75 0.5 13.5 0.5H0.5C0.21875 0.5 0 0.75 0 1C0 1.25 0.21875 1.5 0.5 1.5ZM11.5 5.5H2.5C2.21875 5.5 2 5.75 2 6C2 6.28125 2.21875 6.5 2.5 6.5H11.5C11.75 6.5 12 6.28125 12 6.03125C12 5.75 11.75 5.5 11.5 5.5ZM8.5 10.5H5.5C5.21875 10.5 5 10.75 5 11C5 11.25 5.21875 11.5 5.5 11.5H8.5C8.75 11.5 9 11.2812 9 11.0312C9 10.7812 8.75 10.5 8.5 10.5Z" fill="#C6C6C6"/>
</svg>
