<?xml version="1.0" encoding="utf-8"?>
<!-- Generator: Adobe Illustrator 26.1.0, SVG Export Plug-In . SVG Version: 6.00 Build 0)  -->
<svg version="1.1" id="Layer_1" xmlns="http://www.w3.org/2000/svg" xmlns:xlink="http://www.w3.org/1999/xlink" x="0px" y="0px"
	 viewBox="0 0 340 153" style="enable-background:new 0 0 340 153;" xml:space="preserve">
<style type="text/css">
	.st0{clip-path:url(#SVGID_00000141452397101263343680000016017840894008881296_);}
	.st1{fill:#F2F2F3;}
	.st2{fill:#E6E6E6;}
	.st3{fill:#403D56;}
	.st4{fill:#FFFFFF;}
	.st5{fill:#454546;}
</style>
<g>
	<defs>
		<rect id="SVGID_1_" y="0" width="340" height="153"/>
	</defs>
	<clipPath id="SVGID_00000160184544494371778850000015192651072558321024_">
		<use xlink:href="#SVGID_1_"  style="overflow:visible;"/>
	</clipPath>
	<g style="clip-path:url(#SVGID_00000160184544494371778850000015192651072558321024_);">
		<path class="st1" d="M307.4,61.6h-10.3v35.4h10.3V61.6z"/>
		<path class="st1" d="M314.2,90.4l-25-29.6L239,61.2l-30.4,29.5l0.6,0.4H209v61.4h105.1V91.1L314.2,90.4z"/>
		<path class="st2" d="M289.2,60.8L258,97.3v55.3h56.1V90.4L289.2,60.8z"/>
		<path class="st3" d="M292,122h-11.5v10.1H292V122z"/>
		<path class="st3" d="M292,104.5h-11.5v9.9H292V104.5z"/>
		<path class="st4" d="M292,122h-11.5v10.1H292V122z"/>
		<path class="st4" d="M292,104.5h-11.5v9.9H292V104.5z"/>
		<path class="st4" d="M241,119.3h-11.5v10.1H241V119.3z"/>
		<path class="st4" d="M241,101.9h-11.5v9.9H241V101.9z"/>
		<path class="st1" d="M226.3,61.6H216v35.4h10.3V61.6z"/>
		<path class="st1" d="M233.1,90.4l-25-29.6l-50.2,0.5l-30.4,29.5l0.6,0.4h-0.2v61.4H233V91.1L233.1,90.4z"/>
		<path class="st2" d="M208.1,60.8l-31.2,36.5v55.3H233V90.4L208.1,60.8z"/>
		<path class="st3" d="M210.9,122h-11.5v10.1h11.5V122z"/>
		<path class="st3" d="M210.9,104.5h-11.5v9.9h11.5V104.5z"/>
		<path class="st4" d="M210.9,122h-11.5v10.1h11.5V122z"/>
		<path class="st4" d="M210.9,104.5h-11.5v9.9h11.5V104.5z"/>
		<path class="st4" d="M159.9,119.3h-11.5v10.1h11.5V119.3z"/>
		<path class="st4" d="M159.9,101.9h-11.5v9.9h11.5V101.9z"/>
		<path class="st1" d="M143.3,31h-13.7v47.3h13.7V31z"/>
		<path class="st1" d="M152.3,69.5l-33.4-39.6l-67,0.6L11.2,70l0.8,0.5h-0.3v82.1h140.5V70.5L152.3,69.5z"/>
		<path class="st2" d="M119,30L77.2,78.7v73.8h75V69.4L119,30z"/>
		<path class="st3" d="M122.7,111.7h-15.3v13.5h15.3V111.7z"/>
		<path class="st3" d="M122.7,88.4h-15.3v13.3h15.3V88.4z"/>
		<path class="st4" d="M122.7,111.7h-15.3v13.5h15.3V111.7z"/>
		<path class="st4" d="M122.7,88.4h-15.3v13.3h15.3V88.4z"/>
		<path class="st4" d="M54.6,108.1H39.3v13.5h15.3V108.1z"/>
		<path class="st4" d="M54.6,84.8H39.3v13.3h15.3V84.8z"/>
		<path class="st3" d="M328.4,152.3H0v0.7h328.4V152.3z"/>
		<path class="st3" d="M51.7,139.8c5.5,0,9.9-9,9.9-20.2s-4.4-20.2-9.9-20.2c-5.5,0-9.9,9-9.9,20.2S46.3,139.8,51.7,139.8z"/>
		<path class="st5" d="M52.7,152.6c-4-23.7,0-47.4,0-47.6l0.8,0.1c0,0.2-3.9,23.8,0,47.4L52.7,152.6z"/>
		<path class="st5" d="M60.5,115.3l-9,4.8l0.4,0.7l9-4.8L60.5,115.3z"/>
		<path class="st5" d="M42.4,117.7l-0.4,0.7l9,4.8l0.4-0.7L42.4,117.7z"/>
		<path class="st5" d="M27.9,128c10.7,0,19.4-17.6,19.4-39.4c0-21.8-8.7-39.4-19.4-39.4S8.5,66.8,8.5,88.5
			C8.5,110.3,17.2,128,27.9,128z"/>
		<path class="st3" d="M30.1,153c-7.8-46.4-0.1-92.5,0-93l0.8,0.1c-0.1,0.5-7.7,46.5,0,92.7L30.1,153z"/>
		<path class="st3" d="M45.2,80.4l-17.5,9.3l0.4,0.7l17.5-9.3L45.2,80.4z"/>
		<path class="st3" d="M9.5,85.1l-0.4,0.7l17.5,9.3l0.4-0.7L9.5,85.1z"/>
		<path class="st5" d="M73.9,118.8c14.7,0,26.5-24.1,26.5-53.9c0-29.8-11.9-53.9-26.5-53.9c-14.7,0-26.5,24.1-26.5,53.9
			C47.3,94.6,59.2,118.8,73.9,118.8z"/>
		<path class="st3" d="M77,153C66.3,89.6,76.8,26.4,77,25.8l0.8,0.1c-0.1,0.6-10.6,63.7,0,127L77,153z"/>
		<path class="st3" d="M97.5,53.8l-24,12.8l0.4,0.7l24-12.8L97.5,53.8z"/>
		<path class="st3" d="M48.6,60.2l-0.4,0.7l24,12.8l0.4-0.7L48.6,60.2z"/>
		<path class="st3" d="M296.8,139.8c5.5,0,9.9-9,9.9-20.2s-4.4-20.2-9.9-20.2c-5.5,0-9.9,9-9.9,20.2S291.3,139.8,296.8,139.8z"/>
		<path class="st5" d="M295.9,152.6c4-23.7,0-47.4,0-47.6l-0.8,0.1c0,0.2,3.9,23.8,0,47.4L295.9,152.6z"/>
		<path class="st5" d="M288.1,115.3l-0.4,0.7l9,4.8l0.4-0.7L288.1,115.3z"/>
		<path class="st5" d="M306.1,117.7l-9,4.8l0.4,0.7l9-4.8L306.1,117.7z"/>
		<path class="st5" d="M320.6,128c10.7,0,19.4-17.6,19.4-39.4c0-21.8-8.7-39.4-19.4-39.4c-10.7,0-19.4,17.6-19.4,39.4
			C301.2,110.3,309.9,128,320.6,128z"/>
		<path class="st3" d="M318.4,153c7.8-46.4,0.1-92.5,0-93l-0.8,0.1c0.1,0.5,7.7,46.5,0,92.7L318.4,153z"/>
		<path class="st3" d="M303.4,80.4l-0.4,0.7l17.5,9.3l0.4-0.7L303.4,80.4z"/>
		<path class="st3" d="M339,85.1l-17.5,9.3l0.4,0.7l17.5-9.3L339,85.1z"/>
		<path class="st5" d="M274.7,118.8c14.7,0,26.5-24.1,26.5-53.9c0-29.8-11.9-53.9-26.5-53.9S248.1,35,248.1,64.8
			C248.1,94.6,260,118.8,274.7,118.8z"/>
		<path class="st3" d="M271.6,153c10.6-63.4,0.1-126.6,0-127.2l-0.8,0.1c0.1,0.6,10.6,63.7,0,127L271.6,153z"/>
		<path class="st3" d="M251,53.8l-0.4,0.7l24,12.8l0.4-0.7L251,53.8z"/>
		<path class="st3" d="M300,60.2L276,73l0.4,0.7l24-12.8L300,60.2z"/>
		<path class="st3" d="M200.9,34.4l3.1-2.5c-2.4-0.3-3.4,1.1-3.8,2.1c-1.9-0.8-4,0.2-4,0.2l6.3,2.3C202.2,35.7,201.6,35,200.9,34.4
			L200.9,34.4z"/>
		<path class="st3" d="M124.2,12.4l3.1-2.5c-2.4-0.3-3.4,1.1-3.8,2.1c-1.9-0.8-4,0.2-4,0.2l6.3,2.3C125.5,13.7,125,12.9,124.2,12.4
			L124.2,12.4z"/>
		<path class="st3" d="M249.3,2.5l3.1-2.5c-2.4-0.3-3.4,1.1-3.8,2.1c-1.9-0.8-4,0.2-4,0.2l6.3,2.3C250.6,3.8,250,3.1,249.3,2.5
			L249.3,2.5z"/>
		<path class="st3" d="M255.6,148.3c-0.8,0-1.7,0.2-2.4,0.6c-0.7-0.7-1.6-1.1-2.6-1.2c-1-0.2-2,0-2.9,0.4c-0.9,0.4-1.7,1.1-2.2,1.9
			c-0.5,0.8-0.8,1.8-0.8,2.8h15.7c-0.1-1.2-0.6-2.3-1.5-3.1C258,148.8,256.8,148.3,255.6,148.3L255.6,148.3z"/>
		<path class="st3" d="M96.5,148.3c-0.8,0-1.7,0.2-2.4,0.6c-0.7-0.7-1.6-1.1-2.6-1.2c-1-0.2-2,0-2.9,0.4c-0.9,0.4-1.7,1.1-2.2,1.9
			c-0.5,0.8-0.8,1.8-0.8,2.8h15.7c-0.1-1.2-0.6-2.3-1.5-3.1C98.9,148.8,97.7,148.3,96.5,148.3L96.5,148.3z"/>
		<path class="st3" d="M177.9,148.3c-0.8,0-1.7,0.2-2.4,0.6c-0.7-0.7-1.6-1.1-2.6-1.2c-1-0.2-2,0-2.9,0.4c-0.9,0.4-1.7,1.1-2.2,1.9
			c-0.5,0.8-0.8,1.8-0.8,2.8h15.7c-0.1-1.2-0.6-2.3-1.5-3.1C180.3,148.8,179.1,148.3,177.9,148.3L177.9,148.3z"/>
		<path class="st3" d="M160.7,137.2h-45.2v1.5h7v13.8h1.5v-13.8h27.4v13.8h1.5v-13.8h7.8V137.2z"/>
		<path class="st3" d="M160.8,132.8h-45.2v1.5h45.2V132.8z"/>
		<path class="st3" d="M160.8,129.2h-45.2v1.5h45.2V129.2z"/>
		<path class="st3" d="M160.8,125.6h-45.2v1.5h45.2V125.6z"/>
		<path class="st3" d="M231.3,137.2h-45.2v1.5h7v13.8h1.5v-13.8H222v13.8h1.5v-13.8h7.8V137.2z"/>
		<path class="st3" d="M231.4,132.8h-45.2v1.5h45.2V132.8z"/>
		<path class="st3" d="M231.4,129.2h-45.2v1.5h45.2V129.2z"/>
		<path class="st3" d="M231.4,125.6h-45.2v1.5h45.2V125.6z"/>
	</g>
</g>
</svg>
