<svg width="191" height="112" fill="none" xmlns="http://www.w3.org/2000/svg"><g clip-path="url(#a)"><path d="M3.567 94.607h138.557a3.57 3.57 0 0 0 3.567-3.567V5.599a2.617 2.617 0 0 0-2.613-2.614H2.658A2.662 2.662 0 0 0 0 5.644V91.04a3.572 3.572 0 0 0 3.567 3.567Z" fill="#F2F2F2"/><path d="M8.622 89.555h129.131c1.893 0 3.433-1.442 3.433-3.215V11.937c0-1.314-1.142-2.384-2.544-2.384H7.775c-1.426 0-2.586 1.087-2.586 2.423V86.34c0 1.773 1.54 3.215 3.433 3.215Z" fill="#fff"/><path d="M.05 5.395H145.74V3.578A3.583 3.583 0 0 0 142.161 0H3.631A3.583 3.583 0 0 0 .05 3.578v1.817Z" fill="#CCC"/><path d="M139.234 3.629a.926.926 0 1 1 0-1.853.926.926 0 0 1 0 1.853ZM135.719 3.629a.926.926 0 1 1 0-1.851.926.926 0 0 1 0 1.851ZM132.204 3.629a.926.926 0 1 1 0-1.851.926.926 0 0 1 0 1.851ZM117.142 75.717h32.181a3.787 3.787 0 0 0 3.783-3.784V33.844a2.831 2.831 0 0 0-2.829-2.83h-34.043a2.877 2.877 0 0 0-2.875 2.876v38.043a3.789 3.789 0 0 0 3.783 3.784Z" fill="#fff"/><path d="M117.142 75.717h32.181a3.787 3.787 0 0 0 3.783-3.784V33.844a2.831 2.831 0 0 0-2.829-2.83h-34.043a2.877 2.877 0 0 0-2.875 2.876v38.043a3.789 3.789 0 0 0 3.783 3.784Zm33.135-44.27a2.4 2.4 0 0 1 2.397 2.397v38.089a3.353 3.353 0 0 1-3.351 3.351h-32.181a3.354 3.354 0 0 1-3.351-3.351V33.89a2.446 2.446 0 0 1 2.443-2.443h34.043Z" fill="#3F3D56"/><path d="M133.233 55.365a6.643 6.643 0 1 1 0-13.286 6.643 6.643 0 0 1 0 13.286ZM122.59 64.652h21.285v-.068a7.402 7.402 0 0 0-7.389-7.389h-6.507a7.396 7.396 0 0 0-7.389 7.39v.067Z" fill="#454545"/><path d="M151.789 61.275a2.175 2.175 0 0 0 3.062-1.32l7.719-.336-2.355-3.252-6.969.818a2.186 2.186 0 0 0-1.457 4.09Z" fill="#FFB8B8"/><path d="m173.219 58.193 4.245-8.175a6.77 6.77 0 0 0-.554-7.144 8.9 8.9 0 0 0-.477-.584 6.575 6.575 0 0 0-5.422-2.181 6.793 6.793 0 0 0-5.213 3.044l-2.039 3.082c-.209.186-3.015 2.776-1.971 6.145l.18 3.23a.977.977 0 0 0 .751.895l9.417 2.188a.97.97 0 0 0 1.083-.5Z" fill="#454545"/><path d="M176.196 73.709a2.179 2.179 0 0 0 .605-1.738 2.17 2.17 0 0 0-.944-1.58l1.996-7.464-3.809 1.27-1.311 6.894a2.187 2.187 0 0 0 3.463 2.618Z" fill="#FFB8B8"/><path d="M177.132 70.177a.967.967 0 0 0 .532-.717l1.314-12.749c.177-1.035.203-2.09.078-3.133l-1.575-9.54a2.18 2.18 0 0 0-4.258-.357c-.083.282-.108.58-.074.872l1.286 10.943-1.473 12.907a.972.972 0 0 0 .508.968l2.786.796a.964.964 0 0 0 .876.01Z" fill="#454545"/><path d="m156.028 109.053-2.605-.493.666-10.281 3.844.729-1.905 10.045Z" fill="#FFB8B8"/><path d="m156.853 108.329-5.129-.973a3.336 3.336 0 0 0-2.492.519 3.305 3.305 0 0 0-.91.927c-.24.365-.405.774-.486 1.203l-.02.106 8.397 1.593.64-3.375Z" fill="#2F2E41"/><path d="m179.073 109.135-2.65-.001-1.261-10.224h3.912l-.001 10.225Z" fill="#FFB8B8"/><path d="M179.75 108.269h-5.221a3.33 3.33 0 0 0-3.073 2.053 3.318 3.318 0 0 0-.254 1.274v.108h8.547l.001-3.435Z" fill="#2F2E41"/><path d="M171.318 37.815a5.311 5.311 0 1 1 0-10.622 5.311 5.311 0 0 1 0 10.622Z" fill="#FFB8B8"/><path d="M179.51 105.025a.983.983 0 0 0 .258-.736l-3.614-32.812c.031-.307.522-5.878-3.462-13.007l-.022-.04-10.674-2.96-1.18 4.98-7.909 43.289a.963.963 0 0 0 .195.701c.153.2.378.332.627.368l2.754.413a.971.971 0 0 0 1.078-.688l9.321-29.197a.325.325 0 0 1 .622-.003l7.647 29.3a.976.976 0 0 0 .934.702h2.713a.974.974 0 0 0 .712-.31Z" fill="#2F2E41"/><path d="m156.951 60.684 11.501-1.972a3.765 3.765 0 0 0 3.062-2.946l2.401-11.342a3.1 3.1 0 0 0-2.9-3.732 3.11 3.11 0 0 0-3.199 2.725l-1.205 10.11-10.146 2.636a.974.974 0 0 0-.656.922l.004 2.642a.983.983 0 0 0 .347.743.968.968 0 0 0 .791.214Z" fill="#454545"/><path d="M166.8 31.272c-.845-.175-1.667-.737-1.893-1.57-.197-.728.095-1.513.552-2.113a4.267 4.267 0 0 1 5.112-1.206c-.081-.429.241-.852.639-1.034.411-.152.851-.211 1.287-.173 1.382.02 2.853.065 3.995.843.911.62 1.489 1.639 1.789 2.7.299 1.06.348 2.172.396 3.273.082 1.93-.674 5.99-.674 5.99s-2.673.735-3.844 1.075c-1.258.366-3.382.732-4.64 1.098-.322.094-.753.146-.915-.148-.129-.234.02-.52.17-.742.662-.976 1.42-1.896 1.929-2.96.509-1.063.747-2.327.31-3.423-.437-1.095-3.367-1.435-4.213-1.61Z" fill="#2F2E41"/><path d="M83.421 68.64H14.27a3.46 3.46 0 0 1-3.46-3.459V33.927a3.46 3.46 0 0 1 3.46-3.46H83.42a3.46 3.46 0 0 1 3.46 3.46V65.18a3.46 3.46 0 0 1-3.46 3.46Z" fill="#F2F2F2"/><path d="M21.819 51.284h55.133a1.73 1.73 0 1 0 0-3.46H21.82a1.73 1.73 0 1 0 0 3.46ZM21.819 58.635h55.133a1.73 1.73 0 0 0 0-3.46H21.82a1.73 1.73 0 0 0 0 3.46ZM31.548 43.932h45.404a1.73 1.73 0 0 0 0-3.46H31.548a1.73 1.73 0 0 0 0 3.46Z" fill="#fff"/><path d="M139.109 112h51.675a.22.22 0 0 0 .153-.063.216.216 0 0 0-.153-.369h-51.675a.212.212 0 0 0-.152.063.213.213 0 0 0 0 .306c.04.04.095.063.152.063Z" fill="#CCC"/></g><defs><clipPath id="a"><path fill="#fff" transform="matrix(-1 0 0 1 191 0)" d="M0 0h191v112H0z"/></clipPath></defs></svg>