<svg width="249" height="156" viewBox="0 0 249 156" fill="none" xmlns="http://www.w3.org/2000/svg">
<g clip-path="url(#clip0_3163_338266)">
<path d="M147.601 4.78583C165.411 -4.74343 188.015 0.252271 199.999 17.1489L199.591 17.4384C187.755 0.750266 165.427 -4.18253 147.837 5.22699C146.342 6.02659 144.899 6.91956 143.517 7.90059C125.428 20.7306 121.15 45.8849 133.979 63.9741L133.572 64.2635C120.582 45.9495 124.914 20.482 143.228 7.49265C144.627 6.49963 146.088 5.59558 147.601 4.78583Z" fill="#E6E6E6"/>
<path d="M241.95 45.5171L183.372 40.96C182.462 40.8882 181.619 40.4587 181.026 39.7656C180.433 39.0725 180.139 38.1725 180.208 37.2631L182.748 8.80222C182.82 7.8929 183.249 7.04919 183.942 6.45618C184.635 5.86316 185.535 5.56927 186.445 5.63899L245.023 10.1961C245.932 10.2679 246.776 10.6974 247.369 11.3905C247.962 12.0835 248.256 12.9835 248.186 13.893L245.646 42.3539C245.575 43.2632 245.145 44.1069 244.452 44.6999C243.759 45.2929 242.859 45.5868 241.95 45.5171Z" fill="#E6E6E6"/>
<path d="M228.113 39.0873C227.668 39.0873 227.222 39.0699 226.774 39.0352L188.917 36.09C188.16 36.0312 187.422 35.8238 186.745 35.4798C186.069 35.1357 185.466 34.6617 184.973 34.0848C184.479 33.5079 184.104 32.8395 183.869 32.1176C183.633 31.3958 183.543 30.6347 183.602 29.8777L184.465 18.781C184.585 17.2529 185.307 15.8351 186.472 14.8385C187.637 13.8419 189.149 13.348 190.677 13.4652L239.631 17.2736C241.159 17.3942 242.577 18.116 243.573 19.2807C244.57 20.4453 245.064 21.9577 244.947 23.486C244.616 27.7268 242.701 31.6874 239.581 34.5788C236.461 37.4701 232.366 39.0799 228.113 39.0873V39.0873Z" fill="white"/>
<path d="M238.459 26.0952L190.47 22.3619C190.37 22.3541 190.273 22.3267 190.183 22.2812C190.094 22.2358 190.014 22.1732 189.949 22.097C189.884 22.0208 189.834 21.9325 189.803 21.8372C189.772 21.7418 189.76 21.6413 189.768 21.5413C189.776 21.4413 189.803 21.3439 189.849 21.2545C189.894 21.1651 189.957 21.0855 190.033 21.0203C190.109 20.9551 190.197 20.9056 190.293 20.8745C190.388 20.8434 190.489 20.8314 190.589 20.8392L238.578 24.5726C238.678 24.5803 238.775 24.6077 238.865 24.6532C238.954 24.6986 239.034 24.7612 239.099 24.8374C239.164 24.9136 239.214 25.0019 239.245 25.0973C239.276 25.1926 239.288 25.2931 239.28 25.3931C239.272 25.4931 239.245 25.5906 239.199 25.68C239.154 25.7694 239.091 25.8489 239.015 25.9141C238.939 25.9793 238.851 26.0289 238.755 26.0599C238.66 26.091 238.559 26.103 238.459 26.0952Z" fill="#E6E6E6"/>
<path d="M218.533 27.5721L190.236 25.3707C190.034 25.3549 189.847 25.2595 189.715 25.1057C189.584 24.9518 189.519 24.752 189.535 24.5501C189.55 24.3483 189.645 24.1609 189.799 24.0293C189.953 23.8976 190.153 23.8324 190.355 23.848L218.652 26.0494C218.752 26.0571 218.849 26.0844 218.939 26.1299C219.028 26.1753 219.108 26.2379 219.173 26.3141C219.238 26.3903 219.288 26.4786 219.319 26.574C219.35 26.6694 219.362 26.77 219.354 26.87C219.346 26.97 219.319 27.0675 219.273 27.1569C219.228 27.2464 219.165 27.326 219.089 27.3912C219.013 27.4564 218.924 27.5059 218.829 27.5369C218.734 27.568 218.633 27.5799 218.533 27.5721V27.5721Z" fill="#E6E6E6"/>
<path d="M224.766 31.0831L190.002 28.3786C189.902 28.3709 189.805 28.3435 189.715 28.2981C189.626 28.2526 189.546 28.19 189.481 28.1138C189.416 28.0376 189.366 27.9493 189.335 27.8539C189.304 27.7585 189.292 27.658 189.3 27.5579C189.307 27.4579 189.335 27.3604 189.38 27.271C189.426 27.1816 189.488 27.102 189.565 27.0368C189.641 26.9716 189.729 26.922 189.825 26.891C189.92 26.86 190.021 26.848 190.121 26.8559L224.885 29.5604C225.087 29.5762 225.274 29.6715 225.406 29.8254C225.537 29.9793 225.602 30.1791 225.587 30.3809C225.571 30.5828 225.476 30.7701 225.322 30.9018C225.168 31.0335 224.968 31.0987 224.766 31.0831Z" fill="#E6E6E6"/>
<path d="M238.03 84.1528L179.452 79.5957C178.543 79.5239 177.699 79.0944 177.106 78.4013C176.513 77.7083 176.219 76.8083 176.289 75.8988L178.828 47.438C178.9 46.5286 179.329 45.6849 180.022 45.0919C180.716 44.4989 181.615 44.205 182.525 44.2747L241.103 48.8318C242.012 48.9036 242.856 49.3331 243.449 50.0262C244.042 50.7193 244.336 51.6193 244.266 52.5288L241.727 80.9896C241.655 81.8989 241.225 82.7426 240.532 83.3356C239.839 83.9287 238.939 84.2225 238.03 84.1528Z" fill="#E6E6E6"/>
<path d="M224.178 77.7218C223.74 77.7218 223.298 77.7046 222.854 77.6703L184.997 74.7252C184.24 74.6663 183.503 74.4589 182.826 74.1149C182.149 73.7708 181.546 73.2968 181.053 72.72C180.559 72.1431 180.184 71.4746 179.949 70.7528C179.714 70.0309 179.623 69.2698 179.682 68.5128L180.545 57.4163C180.604 56.6593 180.811 55.9213 181.155 55.2445C181.499 54.5677 181.973 53.9653 182.55 53.4717C183.127 52.978 183.796 52.6029 184.518 52.3676C185.239 52.1323 186.001 52.0415 186.758 52.1004L235.711 55.9088C236.468 55.9677 237.206 56.1751 237.883 56.5191C238.559 56.8632 239.162 57.3372 239.655 57.9141C240.149 58.491 240.524 59.1594 240.76 59.8813C240.995 60.6032 241.086 61.3643 241.027 62.1213C240.691 66.3627 238.772 70.3225 235.65 73.2132C232.528 76.1038 228.433 77.7134 224.178 77.7218Z" fill="white"/>
<path d="M234.54 64.7309L186.55 60.9976C186.45 60.9898 186.353 60.9624 186.264 60.917C186.174 60.8715 186.095 60.8089 186.029 60.7327C185.964 60.6565 185.915 60.5682 185.884 60.4729C185.853 60.3776 185.841 60.277 185.848 60.177C185.856 60.0771 185.883 59.9796 185.929 59.8902C185.974 59.8008 186.037 59.7213 186.113 59.6561C186.189 59.5909 186.278 59.5413 186.373 59.5102C186.468 59.4792 186.569 59.4672 186.669 59.475L234.658 63.2083C234.758 63.2161 234.856 63.2435 234.945 63.2889C235.034 63.3344 235.114 63.397 235.179 63.4732C235.244 63.5494 235.294 63.6376 235.325 63.733C235.356 63.8283 235.368 63.9289 235.36 64.0288C235.352 64.1288 235.325 64.2263 235.28 64.3157C235.234 64.4051 235.172 64.4846 235.095 64.5498C235.019 64.615 234.931 64.6646 234.835 64.6957C234.74 64.7267 234.64 64.7387 234.54 64.7309Z" fill="#E6E6E6"/>
<path d="M214.613 66.2069L186.316 64.0055C186.216 63.9978 186.119 63.9705 186.029 63.925C185.94 63.8796 185.86 63.817 185.795 63.7408C185.73 63.6646 185.68 63.5763 185.649 63.4809C185.618 63.3855 185.606 63.2849 185.614 63.1849C185.622 63.0849 185.649 62.9874 185.694 62.8979C185.74 62.8085 185.803 62.7289 185.879 62.6637C185.955 62.5985 186.043 62.549 186.139 62.518C186.234 62.4869 186.335 62.475 186.435 62.4828L214.732 64.6842C214.934 64.7 215.121 64.7953 215.252 64.9492C215.384 65.1031 215.449 65.3029 215.433 65.5048C215.418 65.7066 215.322 65.894 215.169 66.0256C215.015 66.1573 214.815 66.2225 214.613 66.2069Z" fill="#E6E6E6"/>
<path d="M220.847 69.7188L186.082 67.0143C185.88 66.9986 185.693 66.9033 185.561 66.7494C185.43 66.5955 185.365 66.3956 185.38 66.1937C185.396 65.9918 185.491 65.8044 185.645 65.6727C185.799 65.541 185.999 65.4759 186.201 65.4916L220.965 68.1961C221.167 68.2118 221.355 68.3071 221.486 68.461C221.618 68.6149 221.683 68.8147 221.667 69.0167C221.652 69.2186 221.556 69.406 221.402 69.5377C221.249 69.6694 221.049 69.7345 220.847 69.7188Z" fill="#E6E6E6"/>
<path d="M89.0244 69.2821C88.2809 67.597 87.8765 65.782 87.8344 63.9407C87.7922 62.0993 88.1132 60.2677 88.7789 58.5504C89.4447 56.8332 90.4421 55.2638 91.7144 53.932C92.9866 52.6002 94.5087 51.532 96.1938 50.7885C97.8788 50.0449 99.6938 49.6405 101.535 49.5984C103.376 49.5563 105.208 49.8772 106.925 50.543C108.643 51.2087 110.212 52.2062 111.544 53.4784C112.876 54.7506 113.944 56.2727 114.687 57.9578L114.23 58.1598C113.513 56.5349 112.483 55.067 111.198 53.8402C109.914 52.6133 108.401 51.6514 106.745 51.0094C105.089 50.3674 103.322 50.0579 101.547 50.0985C99.771 50.1391 98.0207 50.5291 96.3958 51.2461C94.7708 51.9632 93.303 52.9932 92.0762 54.2775C90.8493 55.5618 89.8874 57.0752 89.2454 58.7312C88.6034 60.3873 88.2939 62.1535 88.3345 63.9292C88.3751 65.7048 88.7651 67.4551 89.4821 69.0801L89.0244 69.2821Z" fill="#E6E6E6"/>
<path d="M234.402 147.498C240.128 144.785 244.394 139.325 243.728 133.325C238.591 137.485 231.596 139.808 224.375 139.753C221.563 139.731 218.413 139.445 216.37 141.023C215.098 142.005 214.524 143.564 214.452 145.118C214.379 146.672 214.756 148.245 215.131 149.797L215.017 150.165C221.741 150.593 228.675 150.212 234.402 147.498Z" fill="#F2F2F2"/>
<path d="M243.587 133.31C241.372 137.632 237.532 141.234 232.76 143.342C231.715 143.83 230.601 144.157 229.458 144.313C228.293 144.434 227.117 144.28 226.023 143.864C224.986 143.491 223.963 143.007 222.863 142.859C222.325 142.784 221.777 142.818 221.252 142.96C220.727 143.101 220.235 143.347 219.808 143.683C218.791 144.474 218.185 145.567 217.636 146.659C217.026 147.87 216.414 149.139 215.22 149.964C215.075 150.064 215.277 150.272 215.421 150.172C217.499 148.736 217.799 146.138 219.451 144.399C219.839 143.959 220.322 143.614 220.863 143.388C221.404 143.162 221.989 143.061 222.574 143.093C223.697 143.176 224.752 143.675 225.799 144.059C226.864 144.48 228.006 144.667 229.149 144.609C230.302 144.508 231.431 144.221 232.492 143.759C234.799 142.799 236.935 141.47 238.816 139.824C240.895 138.027 242.61 135.849 243.871 133.408C243.947 133.259 243.663 133.162 243.587 133.31H243.587Z" fill="white"/>
<path d="M234.359 142.734C234.962 143.445 235.771 143.95 236.675 144.18C237.578 144.41 238.531 144.352 239.4 144.015C239.567 143.945 239.431 143.701 239.264 143.771C238.455 144.086 237.568 144.14 236.727 143.924C235.886 143.709 235.134 143.236 234.576 142.57C234.459 142.428 234.242 142.592 234.359 142.734V142.734Z" fill="white"/>
<path d="M226.527 144.112C226.637 143.268 226.926 142.457 227.373 141.732C227.82 141.007 228.415 140.386 229.12 139.908C229.264 139.807 229.063 139.599 228.918 139.7C228.186 140.198 227.568 140.847 227.105 141.602C226.642 142.357 226.344 143.201 226.23 144.08C226.21 144.248 226.506 144.279 226.527 144.112L226.527 144.112Z" fill="white"/>
<path d="M240.555 137.843C240.279 137.631 240.062 137.353 239.925 137.034C239.787 136.715 239.734 136.366 239.769 136.021C239.791 135.854 239.495 135.823 239.472 135.989C239.435 136.371 239.495 136.756 239.646 137.108C239.798 137.461 240.035 137.77 240.337 138.006C240.364 138.033 240.4 138.05 240.438 138.054C240.476 138.058 240.514 138.049 240.546 138.029C240.561 138.018 240.572 138.004 240.58 137.988C240.588 137.973 240.593 137.955 240.594 137.938C240.594 137.92 240.591 137.902 240.585 137.886C240.578 137.87 240.568 137.855 240.555 137.843V137.843Z" fill="white"/>
<path d="M224.834 120.64C224.817 120.743 224.799 120.847 224.779 120.951C224.534 122.341 224.16 123.705 223.661 125.025C223.624 125.127 223.585 125.231 223.545 125.332C222.284 128.528 220.366 131.423 217.915 133.831C216.916 134.815 215.839 135.716 214.694 136.525C213.098 137.654 211.257 138.757 210.247 140.278C210.14 140.435 210.044 140.599 209.96 140.77L214.51 149.975C214.531 149.992 214.551 150.01 214.573 150.028L214.736 150.401C214.799 150.363 214.864 150.322 214.927 150.284C214.964 150.262 215 150.238 215.037 150.216C215.061 150.2 215.085 150.185 215.108 150.172C215.116 150.167 215.124 150.162 215.13 150.158C215.153 150.145 215.172 150.131 215.193 150.12C215.555 149.892 215.915 149.661 216.274 149.428C216.276 149.427 216.276 149.427 216.277 149.425C219.006 147.64 221.573 145.624 223.682 143.297C223.745 143.227 223.811 143.157 223.872 143.082C224.81 142.037 225.649 140.908 226.38 139.709C226.774 139.057 227.13 138.383 227.446 137.69C228.257 135.899 228.738 133.977 228.864 132.015C229.121 128.086 227.956 124.023 225.058 120.878C224.984 120.798 224.911 120.719 224.834 120.64Z" fill="#F2F2F2"/>
<path d="M224.718 120.702C225.985 125.562 225.549 130.687 223.403 135.049C222.957 136.017 222.342 136.899 221.587 137.652C220.779 138.393 219.785 138.901 218.712 139.123C217.683 139.367 216.59 139.507 215.666 139.975C215.213 140.201 214.82 140.532 214.52 140.94C214.219 141.348 214.019 141.821 213.936 142.321C213.71 143.539 213.997 144.794 214.324 146.015C214.688 147.372 215.089 148.778 214.753 150.122C214.713 150.285 215.005 150.353 215.045 150.19C215.629 147.851 214.095 145.486 214.153 143.12C214.181 142.016 214.583 140.94 215.608 140.329C216.505 139.794 217.632 139.648 218.677 139.41C219.732 139.205 220.721 138.745 221.557 138.07C222.354 137.359 223.008 136.502 223.485 135.547C224.576 133.441 225.278 131.155 225.556 128.799C225.889 126.066 225.699 123.294 224.996 120.632C224.953 120.464 224.675 120.535 224.718 120.702H224.718Z" fill="white"/>
<path d="M224.188 133.67C226.059 134.256 228.045 133.555 228.83 132.039C228.907 131.889 228.64 131.756 228.562 131.905C227.827 133.325 225.99 133.962 224.24 133.414C224.056 133.357 224.005 133.613 224.188 133.67V133.67Z" fill="white"/>
<path d="M219.257 139.062C218.778 138.339 218.451 137.526 218.295 136.673C218.14 135.82 218.159 134.944 218.353 134.098C218.393 133.935 218.101 133.867 218.061 134.03C217.862 134.91 217.843 135.822 218.007 136.71C218.171 137.598 218.513 138.443 219.014 139.195C219.112 139.348 219.355 139.214 219.257 139.062Z" fill="white"/>
<path d="M225.516 126.182C225.149 126.141 224.795 126.019 224.48 125.825C224.165 125.631 223.897 125.37 223.694 125.06C223.598 124.907 223.356 125.04 223.451 125.193C223.676 125.534 223.973 125.822 224.32 126.037C224.668 126.252 225.058 126.389 225.464 126.438C225.544 126.448 225.619 126.419 225.636 126.344C225.64 126.307 225.63 126.269 225.608 126.239C225.586 126.209 225.553 126.189 225.516 126.182Z" fill="white"/>
<path d="M234.493 82.1378L231.012 63.6088L224.179 54.6152L219.116 57.9259C219.831 61.8067 225.244 69.0516 225.244 69.0516L230.041 83.3815C230.022 83.456 230.004 83.5311 229.991 83.6084C229.915 84.0618 229.957 84.5271 230.114 84.9594C230.27 85.3917 230.535 85.7764 230.883 86.0762C231.232 86.3761 231.652 86.581 232.102 86.6712C232.553 86.7614 233.02 86.7338 233.457 86.591C233.894 86.4483 234.286 86.1952 234.597 85.8563C234.907 85.5174 235.125 85.1041 235.23 84.6564C235.334 84.2087 235.321 83.7416 235.192 83.3004C235.063 82.8592 234.822 82.4588 234.493 82.1378V82.1378Z" fill="#FFB8B8"/>
<path d="M219.252 59.8838L224.984 55.2308L224.995 55.2062C226.068 52.7765 223.687 48.6102 221.501 45.5431C220.779 44.5324 219.701 43.8334 218.484 43.5874C217.266 43.3413 216.001 43.5667 214.943 44.2179C214.167 44.7035 213.541 45.3968 213.138 46.2193C212.734 47.0418 212.569 47.9608 212.66 48.8724L213.142 53.5141L219.252 59.8838Z" fill="#3F3D56"/>
<path d="M198.991 152.095L195.176 152.095L193.362 137.382L198.991 137.382L198.991 152.095Z" fill="#FFB8B8"/>
<path d="M199.964 150.85L198.89 150.85L194.698 149.146L192.452 150.85H192.451C191.182 150.85 189.964 151.354 189.066 152.252C188.169 153.15 187.664 154.367 187.664 155.637V155.793L199.963 155.793L199.964 150.85Z" fill="#2F2E41"/>
<path d="M215.916 152.095L212.101 152.095L210.287 137.382L215.916 137.382L215.916 152.095Z" fill="#FFB8B8"/>
<path d="M216.889 150.85L215.815 150.85L211.623 149.146L209.377 150.85H209.377C208.107 150.85 206.889 151.354 205.992 152.252C205.094 153.15 204.589 154.367 204.589 155.637V155.793L216.889 155.793L216.889 150.85Z" fill="#2F2E41"/>
<path d="M221.732 88.722C221.732 88.722 222.177 94.0668 221.064 99.1889C219.95 104.311 219.95 118.737 219.95 118.737L217.501 146.847L210.152 146.179L208.147 99.1889L201.021 115.001L201.689 117.228L200.799 117.784C200.799 117.784 201.466 122.127 201.021 122.127C200.575 122.127 199.462 122.795 199.462 122.795L200.353 145.733L192.781 145.511L190.109 113.219L193.004 94.7349L193.226 91.1717L194.228 91.2129L194.739 89.7241L195.676 87.1631L221.732 88.722Z" fill="#2F2E41"/>
<path d="M222.117 89.8445L222.157 89.7888C224.276 86.8211 221.088 79.6897 220.607 78.6559L222.633 77.9986L222.177 74.1219L221.961 72.3936L223.509 70.8457L223.513 70.8071L224.404 63.0126L225.699 57.8355C226.187 55.8784 226.145 53.8267 225.578 51.891C225.011 49.9553 223.94 48.2053 222.473 46.8207L219.479 43.9979L215.841 38.6143H209.973L207.961 42.4143C206.011 42.8651 204.28 43.9859 203.071 45.5814C201.862 47.1769 201.251 49.146 201.345 51.1457L201.8 61.1121L200.015 73.5211L200.014 75.7669L198.006 77.9993L198.444 80.1925L196.916 80.8476L196.24 83.9976C195.961 84.3663 194.117 86.8249 194.117 87.497C194.117 87.5979 194.192 87.6955 194.352 87.8037C195.608 88.6546 202.554 90.3893 205.628 89.1592C208.902 87.85 221.918 89.8141 222.049 89.8341L222.117 89.8445Z" fill="#3F3D56"/>
<path d="M171.093 155.703C171.093 155.782 171.124 155.857 171.18 155.913C171.235 155.969 171.31 156 171.389 156H241.482C241.561 156 241.636 155.969 241.692 155.913C241.748 155.857 241.779 155.782 241.779 155.703C241.779 155.624 241.748 155.548 241.692 155.492C241.636 155.437 241.561 155.405 241.482 155.405H171.391C171.312 155.405 171.237 155.436 171.181 155.492C171.125 155.547 171.094 155.622 171.093 155.701V155.703Z" fill="#CCCCCC"/>
<path d="M212.149 36.8763C216.441 36.8763 219.92 33.3972 219.92 29.1056C219.92 24.814 216.441 21.335 212.149 21.335C207.857 21.335 204.378 24.814 204.378 29.1056C204.378 33.3972 207.857 36.8763 212.149 36.8763Z" fill="#FFB8B8"/>
<path d="M211.405 37.002C212.608 36.9897 213.808 36.8746 214.992 36.6581C216.164 36.3881 218.75 34.3885 219.455 33.2073C219.978 32.3296 220.292 30.9721 220.464 29.9879C220.695 28.6854 220.651 27.3487 220.333 26.0645C220.015 24.7804 219.431 23.5772 218.619 22.5331C218.305 22.0957 217.88 21.7511 217.387 21.5356C217.343 21.5199 217.298 21.5061 217.253 21.4944C216.539 21.326 215.891 20.9479 215.393 20.4085C215.296 20.2993 215.192 20.1973 215.08 20.1031C214.521 19.6557 213.865 19.3469 213.164 19.202C212.031 18.93 210.411 19.2708 208.349 20.2157C207.313 20.6905 206.163 20.5581 205.277 20.3896C205.227 20.3813 205.176 20.3862 205.129 20.4038C205.082 20.4213 205.04 20.4509 205.008 20.4897C204.642 20.8514 204.152 21.0612 203.638 21.077C203.323 21.0989 203.004 21.5437 202.619 22.1228C202.532 22.2543 202.43 22.4077 202.356 22.5014L202.341 22.3255L202.168 22.5266C201.896 22.8426 201.708 23.2223 201.622 23.6304C201.537 24.0385 201.555 24.4617 201.677 24.8606C201.799 25.2594 202.019 25.621 202.319 25.9117C202.618 26.2023 202.985 26.4125 203.388 26.5228C203.707 26.5989 204.033 26.6423 204.361 26.6522C204.559 26.6649 204.765 26.6781 204.962 26.7071C205.597 26.82 206.191 27.0955 206.687 27.5066C207.183 27.9177 207.564 28.4504 207.793 29.0527C207.847 29.1919 207.932 29.3169 208.042 29.4179C208.152 29.5189 208.284 29.5933 208.427 29.6353C208.57 29.6773 208.721 29.6859 208.868 29.6603C209.015 29.6347 209.155 29.5757 209.275 29.4877C209.476 29.3229 209.713 29.2092 209.968 29.1561C210.222 29.103 210.485 29.1122 210.735 29.1828C210.952 29.2964 211.124 29.4812 211.221 29.7063C211.338 29.9568 211.528 30.1666 211.765 30.309C212.574 30.7 212.676 32.5222 212.429 34.0498C212.19 35.5223 211.671 36.5964 211.167 36.6619C210.778 36.7122 210.734 36.741 210.708 36.8106L210.684 36.8729L210.73 36.9295C210.947 37.0019 211.177 37.0266 211.405 37.002Z" fill="#2F2E41"/>
<path d="M126.005 77.056C134.539 77.056 141.457 70.1382 141.457 61.6047C141.457 53.0711 134.539 46.1533 126.005 46.1533C117.472 46.1533 110.554 53.0711 110.554 61.6047C110.554 70.1382 117.472 77.056 126.005 77.056Z" fill="#454545"/>
<path d="M209.615 59.3054L204.518 56.0459C201.272 58.2908 196.886 66.1993 196.886 66.1993L185.785 76.4549C185.323 76.5343 184.889 76.734 184.529 77.0341C184.168 77.3342 183.893 77.724 183.73 78.1644C183.568 78.6047 183.525 79.0799 183.605 79.5423C183.685 80.0047 183.885 80.4378 184.186 80.7982C184.486 81.1585 184.876 81.4333 185.317 81.595C185.757 81.7566 186.233 81.7993 186.695 81.7189C187.157 81.6384 187.59 81.4376 187.95 81.1367C188.31 80.8357 188.584 80.4452 188.746 80.0045L204.217 69.2267L209.615 59.3054Z" fill="#FFB8B8"/>
<path d="M209.129 60.628L212.523 52.481L211.296 47.9787C211.051 47.0957 210.565 46.2986 209.891 45.6775C209.218 45.0564 208.384 44.6361 207.484 44.464C206.263 44.2389 205.002 44.486 203.955 45.1553C202.909 45.8246 202.156 46.8662 201.849 48.0695C200.919 51.7195 200.205 56.4645 202.083 58.3423L202.102 58.3614L209.129 60.628Z" fill="#3F3D56"/>
<path d="M11.4459 151.286C4.80111 147.875 -0.0198094 141.284 0.988101 134.241C6.88488 139.334 15.0379 142.332 23.5462 142.536C26.8601 142.615 30.5812 142.396 32.9298 144.331C34.3912 145.536 35.0087 147.394 35.0361 149.227C35.0634 151.06 34.5609 152.899 34.0616 154.714L34.1821 155.151C26.2453 155.404 18.0906 154.697 11.4459 151.286Z" fill="#F2F2F2"/>
<path d="M1.15478 134.229C3.60251 139.403 7.9916 143.789 13.5347 146.451C14.7483 147.065 16.0476 147.492 17.3887 147.718C18.7558 147.904 20.1478 147.767 21.452 147.317C22.6878 146.917 23.9102 146.384 25.2115 146.252C25.8488 146.183 26.4933 146.244 27.1065 146.431C27.7197 146.617 28.289 146.925 28.7804 147.336C29.9482 148.306 30.6216 149.617 31.228 150.923C31.9014 152.373 32.574 153.89 33.9503 154.907C34.117 155.03 33.8718 155.268 33.7053 155.145C31.3109 153.375 31.0546 150.304 29.1743 148.193C28.2969 147.208 27.059 146.474 25.5432 146.538C24.2177 146.593 22.9566 147.142 21.7086 147.556C20.4385 148.012 19.0856 148.19 17.7409 148.078C16.3868 147.916 15.0678 147.536 13.835 146.952C11.1527 145.735 8.68606 144.089 6.53162 142.08C4.15063 139.886 2.21099 137.256 0.817043 134.333C0.732491 134.154 1.07078 134.051 1.15478 134.229H1.15478Z" fill="white"/>
<path d="M11.6742 145.674C10.2176 147.335 7.65382 147.897 5.68736 146.995C5.49363 146.906 5.66309 146.624 5.85707 146.713C6.79806 147.114 7.8412 147.211 8.8398 146.988C9.83839 146.766 10.7422 146.236 11.4241 145.474C11.5674 145.31 11.8167 145.511 11.6742 145.674Z" fill="white"/>
<path d="M20.8494 147.592C20.7503 146.593 20.4408 145.627 19.9413 144.756C19.4418 143.886 18.7637 143.131 17.9515 142.542C17.7853 142.418 18.0304 142.181 18.1965 142.304C19.0403 142.919 19.7442 143.706 20.2618 144.613C20.7794 145.52 21.099 146.526 21.1995 147.565C21.2174 147.763 20.8672 147.788 20.8494 147.592V147.592Z" fill="white"/>
<path d="M4.55804 139.682C4.89036 139.443 5.15609 139.123 5.33006 138.753C5.50402 138.382 5.58043 137.973 5.55205 137.565C5.53133 137.367 5.88152 137.342 5.90211 137.538C5.93143 137.99 5.84656 138.441 5.65536 138.85C5.46415 139.26 5.17278 139.615 4.80815 139.882C4.77506 139.913 4.73259 139.931 4.68765 139.935C4.64271 139.938 4.59794 139.926 4.56062 139.901C4.5445 139.888 4.53147 139.871 4.52245 139.852C4.51342 139.834 4.50862 139.813 4.50837 139.792C4.50813 139.771 4.51245 139.751 4.52103 139.732C4.52961 139.713 4.54224 139.696 4.55805 139.682H4.55804Z" fill="white"/>
<path d="M23.7193 120.003C23.7362 120.126 23.7532 120.248 23.7727 120.372C24.0094 122.018 24.3995 123.639 24.9379 125.212C24.9773 125.335 25.0193 125.458 25.0626 125.579C26.4294 129.391 28.5811 132.873 31.3785 135.801C32.518 136.998 33.7531 138.099 35.0715 139.095C36.9092 140.484 39.0376 141.853 40.1704 143.683C40.2907 143.872 40.3975 144.069 40.4901 144.272L34.7866 154.947C34.7604 154.966 34.7368 154.987 34.7105 155.006L34.504 155.44C34.4309 155.393 34.3564 155.342 34.2833 155.295C34.2408 155.267 34.1995 155.238 34.157 155.21C34.129 155.192 34.1011 155.172 34.0745 155.157C34.0652 155.151 34.0559 155.144 34.0492 155.139C34.0227 155.123 34.0001 155.106 33.9762 155.091C33.5586 154.81 33.1428 154.525 32.7287 154.236C32.7261 154.235 32.7261 154.235 32.7247 154.232C29.5765 152.028 26.6282 149.557 24.2309 146.737C24.1588 146.652 24.084 146.567 24.0145 146.477C22.9493 145.21 22.0026 143.849 21.1861 142.409C20.7464 141.626 20.3524 140.819 20.006 139.991C19.1174 137.851 18.6231 135.569 18.5469 133.253C18.3909 128.615 19.9157 123.873 23.4467 120.276C23.5371 120.184 23.6262 120.094 23.7193 120.003Z" fill="#F2F2F2"/>
<path d="M23.8541 120.081C22.1797 125.759 22.5027 131.813 24.8675 137.031C25.357 138.188 26.0483 139.25 26.9092 140.165C27.8337 141.068 28.9853 141.704 30.2419 142.006C31.4444 142.331 32.7274 142.537 33.7976 143.123C34.3228 143.407 34.7733 143.811 35.1123 144.303C35.4513 144.794 35.6691 145.359 35.748 145.951C35.9686 147.395 35.5842 148.862 35.153 150.289C34.6743 151.874 34.1492 153.514 34.494 155.111C34.5358 155.304 34.1896 155.373 34.1479 155.18C33.5479 152.403 35.4431 149.674 35.4625 146.885C35.4715 145.583 35.0378 144.301 33.853 143.542C32.8169 142.878 31.4941 142.665 30.2726 142.345C29.0372 142.064 27.8892 141.485 26.929 140.659C26.0169 139.791 25.2783 138.758 24.7529 137.615C23.5454 135.093 22.8042 132.374 22.565 129.588C22.2746 126.356 22.6017 123.098 23.5288 119.988C23.5867 119.792 23.9116 119.886 23.8541 120.081L23.8541 120.081Z" fill="white"/>
<path d="M23.9947 135.377C21.7679 135.998 19.4551 135.097 18.5872 133.282C18.5017 133.103 18.8215 132.956 18.9071 133.135C19.7202 134.835 21.8609 135.654 23.9425 135.074C24.1615 135.013 24.2125 135.316 23.9947 135.377Z" fill="white"/>
<path d="M29.6016 141.913C30.1931 141.08 30.609 140.134 30.824 139.135C31.0391 138.135 31.0487 137.103 30.8525 136.099C30.8115 135.906 31.1577 135.837 31.1986 136.03C31.4006 137.075 31.3881 138.15 31.162 139.189C30.9359 140.229 30.5009 141.212 29.8833 142.079C29.7621 142.255 29.4811 142.089 29.6016 141.913H29.6016Z" fill="white"/>
<path d="M22.7094 126.506C23.1438 126.471 23.5652 126.341 23.9434 126.124C24.3216 125.907 24.6475 125.61 24.8976 125.253C25.0163 125.075 25.2972 125.242 25.1793 125.418C24.9013 125.811 24.541 126.14 24.1235 126.38C23.7061 126.62 23.2413 126.767 22.7616 126.809C22.6663 126.818 22.5788 126.782 22.5624 126.692C22.5585 126.649 22.5715 126.605 22.5989 126.57C22.6262 126.536 22.6657 126.513 22.7094 126.506Z" fill="white"/>
<path d="M43.8212 66.5049L44.3218 71.1474L44.0272 77.235L57.5113 75.633L58.7783 66.5049L57.1639 66.5206L43.8212 66.5049Z" fill="#FFB6B6"/>
<path d="M36.8273 150.791H39.7754L41.1785 139.42H36.8273V150.791Z" fill="#FFB6B6"/>
<path d="M35.8652 148.771L40.5751 148.49V150.508L45.0528 153.601C45.274 153.753 45.4406 153.973 45.5282 154.227C45.6159 154.481 45.62 154.756 45.54 155.013C45.46 155.27 45.3001 155.494 45.0836 155.653C44.8671 155.812 44.6054 155.898 44.3366 155.898H38.7294L37.7629 153.902L37.3855 155.898H35.2714L35.8652 148.771Z" fill="#2F2E41"/>
<path d="M53.3869 150.791H56.3349L57.7378 139.42H53.3869V150.791Z" fill="#FFB6B6"/>
<path d="M52.4248 148.771L57.1346 148.49V150.508L61.6124 153.601C61.8336 153.753 62.0001 153.973 62.0878 154.227C62.1754 154.481 62.1795 154.756 62.0996 155.013C62.0196 155.27 61.8597 155.494 61.6432 155.653C61.4267 155.812 61.1649 155.898 60.8961 155.898H55.2889L54.3224 153.902L53.945 155.898H51.8309L52.4248 148.771Z" fill="#2F2E41"/>
<path d="M35.5554 140.985H35.5874L36.1544 122.497C35.7875 121.789 35.6013 121.001 35.6124 120.204C35.6234 119.407 35.8314 118.625 36.2178 117.928L36.299 117.781L36.0885 116.806C35.8182 115.552 35.9423 114.246 36.4437 113.066L36.9726 95.8189C35.083 83.5725 44.0884 75.5859 44.0884 75.5859H57.5786L60.4748 85.5366C62.3894 104.19 62.042 122.368 59.0037 139.978L59.0866 140.02C59.3848 140.123 59.5127 140.536 59.3723 140.943C59.232 141.35 58.8764 141.596 58.5781 141.493L51.4538 141.245C51.1555 141.143 51.0275 140.729 51.168 140.323C51.3083 139.916 51.6639 139.67 51.9622 139.773L52.4466 140.018L51.4135 122.177L51.5282 118.918L51.292 115.221L50.1999 98.5917L46.0664 119.041L41.8442 141.191C41.9607 141.297 42.0424 141.435 42.0786 141.588C42.1149 141.741 42.1039 141.901 42.0472 142.047C41.9904 142.194 41.8906 142.32 41.7609 142.408C41.6311 142.497 41.4776 142.544 41.3205 142.544H35.5554C35.453 142.544 35.3515 142.524 35.2568 142.485C35.1621 142.446 35.0761 142.388 35.0036 142.316C34.9311 142.244 34.8736 142.158 34.8343 142.063C34.7951 141.968 34.7749 141.867 34.7749 141.765C34.7749 141.662 34.7951 141.561 34.8343 141.466C34.8736 141.371 34.9311 141.286 35.0036 141.213C35.0761 141.141 35.1621 141.083 35.2568 141.044C35.3515 141.005 35.453 140.985 35.5554 140.985Z" fill="#2F2E41"/>
<path d="M46.1758 42.7479C50.172 42.7479 53.4115 39.5083 53.4115 35.5121C53.4115 31.5159 50.172 28.2764 46.1758 28.2764C42.1796 28.2764 38.94 31.5159 38.94 35.5121C38.94 39.5083 42.1796 42.7479 46.1758 42.7479Z" fill="#FFB6B6"/>
<path d="M14.469 68.9414C15.486 66.5805 16.8824 64.402 18.6031 62.4923C17.1461 64.8144 16.3134 67.4734 16.1856 70.2118C16.7131 70.5413 17.2651 70.83 17.8366 71.0753C19.5543 71.7957 21.3856 72.2072 23.2463 72.2906C24.2492 68.9494 25.9802 65.8719 28.3148 63.2797C26.6323 65.9628 25.7862 69.0858 25.8843 72.2513C27.9597 72.0719 30.0045 71.6336 31.9712 70.9467C34.9241 69.9309 37.7903 68.4138 39.8324 66.0541C42.0425 63.5002 43.1318 60.1299 43.4835 56.7702C43.8353 53.4131 43.5045 50.0245 43.1712 46.6647C43.0137 45.0636 44.3471 43.221 44.1896 41.6199H44.0846C43.3838 40.6592 42.6698 39.6749 42.326 38.5357C41.9848 37.3992 42.074 36.0579 42.8588 35.1628C43.2985 34.6952 43.8534 34.3512 44.4678 34.1654C44.5256 34.0919 44.5886 34.0211 44.6542 33.9502C45.8427 32.6878 47.2415 31.6416 48.7882 30.8582C47.6727 31.7007 46.9273 32.6535 46.5808 33.6378C47.5467 33.4252 48.5126 33.2135 49.4786 33.0026C49.8014 32.6602 50.1413 32.3343 50.497 32.0262C51.0141 31.5774 51.1847 31.5432 51.8015 31.1207C51.3035 31.5587 50.9175 32.1095 50.6755 32.727C51.917 32.4147 53.1585 31.9448 53.8042 30.8765C54.8752 29.11 53.6021 26.7267 51.8251 25.6716C50.5325 24.9414 49.0431 24.6359 47.5674 24.7984C46.0917 24.9609 44.7044 25.5831 43.6016 26.5771C41.032 24.6846 37.373 24.7161 34.5146 26.1309C32.6275 27.1067 31.002 28.5207 29.7742 30.2545C30.4864 30.1631 31.2033 30.1131 31.9213 30.1049C30.9106 30.2528 29.9482 30.6338 29.1101 31.2178C28.7394 31.7934 28.3994 32.3883 28.0917 33C27.8896 33.4016 27.6989 33.8084 27.5195 34.2205C26.4197 36.7246 25.7031 39.3914 24.9603 42.0267C24.0941 45.0977 23.165 48.1897 21.5428 50.9379C19.0557 55.1166 15.1323 58.247 10.5056 59.7441C10.1197 63.2167 11.8153 66.6132 14.469 68.9414Z" fill="#2F2E41"/>
<path d="M53.4624 47.587L52.058 47.0597L50.2871 44.1963L43.9792 44.7117L42.446 47.782L38.7525 50.6026L40.3677 59.1094L42.8772 69.4426L59.6759 67.3428L59.6582 59.5641C59.6582 59.5641 62.6938 53.4185 57.7902 51.1157L53.4624 47.587Z" fill="#454545"/>
<path d="M79.3559 74.5696C79.0298 74.7005 78.679 74.7583 78.3281 74.7389C77.9772 74.7196 77.6349 74.6235 77.3252 74.4576C77.0154 74.2916 76.7459 74.0597 76.5354 73.7783C76.325 73.4969 76.1788 73.1727 76.1072 72.8287L57.3768 61.495L60.8004 57.5449L78.1353 69.9277C78.7212 69.8457 79.3168 69.9815 79.8093 70.3093C80.3018 70.6372 80.6569 71.1343 80.8074 71.7064C80.9578 72.2786 80.8932 72.8861 80.6257 73.4138C80.3581 73.9415 79.9064 74.3527 79.3559 74.5695V74.5696Z" fill="#FFB6B6"/>
<path d="M51.1356 56.1202C51.1356 56.1202 50.2404 57.0209 52.4865 58.5018C54.2846 59.6874 62.305 65.5462 65.1481 66.4729C65.1125 66.8905 65.2169 67.3081 65.4447 67.6599C65.6726 68.0117 66.011 68.2776 66.4067 68.4159L68.9809 62.7589C68.4237 61.4656 67.5324 61.7651 67.0635 62.0583L63.9544 59.7202L56.32 52.0967L51.771 55.4577L51.1356 56.1202Z" fill="#454545"/>
<path d="M43.6475 26.7734C42.7778 28.0568 42.216 29.5236 42.0057 31.0595C41.7954 32.5955 41.9424 34.1593 42.4352 35.6292" fill="#FD6584"/>
<path d="M6.93799 155.703C6.93787 155.742 6.94549 155.781 6.96041 155.817C6.97532 155.853 6.99724 155.886 7.0249 155.914C7.05255 155.941 7.0854 155.963 7.12156 155.978C7.15772 155.993 7.19647 156.001 7.23558 156H77.3265C77.4054 156 77.4811 155.969 77.5369 155.913C77.5928 155.857 77.6241 155.782 77.6241 155.703C77.6241 155.624 77.5928 155.548 77.5369 155.492C77.4811 155.437 77.4054 155.405 77.3265 155.405H7.23558C7.19647 155.405 7.15772 155.413 7.12157 155.428C7.08541 155.443 7.05255 155.465 7.0249 155.492C6.99724 155.52 6.97532 155.553 6.96041 155.589C6.94549 155.625 6.93787 155.664 6.93799 155.703Z" fill="#CCCCCC"/>
<path d="M33.6427 88.0658C33.468 88.1273 33.3249 88.2556 33.2447 88.4225C33.1645 88.5894 33.1537 88.7813 33.2148 88.9562L42.98 117.101C43.0415 117.276 43.1698 117.419 43.3367 117.499C43.5036 117.579 43.6955 117.59 43.8703 117.529L100.69 97.5933C100.865 97.5318 101.008 97.4035 101.088 97.2365C101.169 97.0696 101.179 96.8777 101.118 96.7028L91.353 68.5578C91.2915 68.3831 91.1631 68.24 90.9962 68.1598C90.8293 68.0796 90.6373 68.0689 90.4625 68.13L33.6427 88.0658Z" fill="#E6E6E6"/>
<path d="M48.0246 113.468C46.9064 113.467 45.8157 113.121 44.9024 112.475C43.9892 111.83 43.2981 110.918 42.9242 109.864L37.5615 94.6913C37.0838 93.3399 37.1626 91.8541 37.7804 90.5608C38.3982 89.2675 39.5044 88.2726 40.8558 87.7949L69.5732 77.645C74.9489 75.7517 80.8561 76.0681 85.9988 78.5248C91.1415 80.9815 95.0997 85.3778 97.005 90.7493C97.4826 92.1007 97.4039 93.5864 96.7861 94.8797C96.1683 96.173 95.062 97.168 93.7107 97.6456L93.669 97.5277L93.7107 97.6456L49.8203 113.159C49.2436 113.363 48.6364 113.467 48.0246 113.468Z" fill="white"/>
<path d="M86.1071 83.558L60.3932 92.5798C60.0309 92.707 59.5819 92.3673 59.3903 91.8212C59.1987 91.2751 59.3371 90.7294 59.6994 90.6023L85.4132 81.5804C85.7755 81.4533 86.2245 81.7929 86.4162 82.339C86.6078 82.8851 86.4695 83.4314 86.1071 83.558Z" fill="#E6E6E6"/>
<path d="M88.096 89.2269L62.3821 98.2488C62.0198 98.3759 61.5708 98.0362 61.3792 97.4901C61.1876 96.9441 61.326 96.3983 61.6883 96.2712L87.4021 87.2493C87.7644 87.1222 88.2134 87.4619 88.4051 88.008C88.5967 88.554 88.4583 89.0998 88.096 89.2269Z" fill="#E6E6E6"/>
<path d="M56.9139 95.6642C57.19 96.4423 57.3242 97.2636 57.31 98.0891C57.3045 98.4668 57.2672 98.8434 57.1984 99.2149C56.9792 100.415 56.447 101.536 55.6556 102.464C54.8643 103.393 53.8418 104.096 52.6916 104.502C51.5414 104.909 50.3042 105.005 49.1052 104.78C47.9062 104.555 46.7878 104.017 45.8632 103.221C45.7698 103.141 45.6789 103.059 45.5905 102.974C44.8353 102.25 44.2539 101.365 43.8897 100.384C43.5255 99.4039 43.3881 98.3537 43.4878 97.3126C43.5875 96.2714 43.9217 95.2664 44.4652 94.3728C45.0088 93.4792 45.7477 92.7203 46.6264 92.1531C47.5051 91.5859 48.5009 91.225 49.539 91.0975C50.5772 90.9701 51.6307 91.0794 52.6205 91.4172C53.6104 91.755 54.5109 92.3126 55.2544 93.0482C55.998 93.7837 56.5654 94.6781 56.9139 95.6642Z" fill="#E4E4E4"/>
<path d="M50.6715 99.0301C51.4028 99.0301 51.9957 98.4373 51.9957 97.706C51.9957 96.9747 51.4028 96.3818 50.6715 96.3818C49.9402 96.3818 49.3474 96.9747 49.3474 97.706C49.3474 98.4373 49.9402 99.0301 50.6715 99.0301Z" fill="#FD6584"/>
<path d="M45.5905 102.974C45.9304 102.185 46.3322 100.981 47.2629 101.42C47.7227 101.619 48.5461 102.225 48.8805 101.52L51.4986 96.0397C51.5482 95.9375 51.6178 95.8463 51.7032 95.7713C51.7886 95.6964 51.8881 95.6393 51.9959 95.6033C52.1036 95.5674 52.2175 95.5534 52.3308 95.5621C52.4441 95.5708 52.5545 95.602 52.6555 95.654L57.31 98.0892C57.3046 98.467 57.2672 98.8436 57.1984 99.215L45.8632 103.221L45.5905 102.974Z" fill="#3F3D56"/>
<path d="M46.9416 86.7885C46.6141 86.6612 46.3185 86.4636 46.0756 86.2097C45.8327 85.9557 45.6484 85.6516 45.5358 85.3188C45.4231 84.9859 45.3849 84.6324 45.4236 84.2831C45.4624 83.9339 45.5772 83.5974 45.7601 83.2973L39.8346 62.222L45.0335 61.6787L49.2233 82.5659C49.707 82.9065 50.049 83.4128 50.1844 83.9887C50.3198 84.5646 50.2392 85.1702 49.958 85.6907C49.6767 86.2112 49.2143 86.6104 48.6584 86.8128C48.1024 87.0151 47.4916 87.0065 46.9416 86.7885Z" fill="#FFB6B6"/>
<path d="M38.958 50.6537C38.958 50.6537 37.689 50.6993 38.3163 53.3155C38.8185 55.4099 40.6627 68.5487 42.1046 71.1684C41.7931 71.449 41.5839 71.8251 41.5098 72.2376C41.4357 72.6501 41.5009 73.0756 41.6953 73.447L47.4409 71.0772C47.9181 69.7523 47.5486 68.5495 47.0058 68.443L46.3346 64.6112L45.3453 51.7567L39.8747 50.6045L38.958 50.6537Z" fill="#454545"/>
<path d="M90.7165 106.106L82.7703 106.435C82.6005 106.442 82.4313 106.411 82.2753 106.344C82.1193 106.276 81.9806 106.174 81.8695 106.046C81.7599 105.921 81.6801 105.772 81.636 105.612C81.592 105.451 81.5849 105.283 81.6152 105.119C82.225 101.794 82.0473 98.3721 81.0963 95.1281C81.0229 94.88 81.0378 94.6141 81.1385 94.3757C81.2392 94.1374 81.4194 93.9414 81.6485 93.821C84.9032 92.13 87.9529 92.0443 90.7123 93.5659C90.8569 93.6445 90.9826 93.7536 91.0807 93.8858C91.1788 94.0179 91.247 94.1699 91.2803 94.3311C91.9985 97.871 92.1707 101.5 91.7909 105.092C91.7646 105.362 91.6413 105.614 91.4438 105.8C91.2462 105.987 90.9879 106.095 90.7165 106.106Z" fill="#454545"/>
<path d="M90.3802 100.904L84.3045 101.156C84.2296 101.159 84.1548 101.147 84.0844 101.121C84.0141 101.096 83.9494 101.056 83.8943 101.006C83.8391 100.955 83.7945 100.894 83.7629 100.826C83.7314 100.758 83.7136 100.684 83.7104 100.609C83.7073 100.534 83.719 100.46 83.7448 100.389C83.7707 100.319 83.8101 100.254 83.8609 100.199C83.9116 100.144 83.9728 100.1 84.0408 100.068C84.1088 100.037 84.1824 100.019 84.2573 100.016L90.333 99.7642C90.4079 99.7611 90.4826 99.7727 90.5529 99.7985C90.6233 99.8243 90.6878 99.8637 90.743 99.9144C90.7981 99.9651 90.8427 100.026 90.8742 100.094C90.9057 100.162 90.9235 100.236 90.9266 100.31C90.9297 100.385 90.918 100.46 90.8922 100.53C90.8665 100.601 90.8271 100.665 90.7764 100.72C90.7256 100.776 90.6645 100.82 90.5966 100.852C90.5286 100.883 90.4551 100.901 90.3802 100.904Z" fill="white"/>
<path d="M90.2975 98.906L84.2217 99.1576C84.0706 99.1639 83.9231 99.1099 83.8118 99.0074C83.7005 98.9049 83.6344 98.7625 83.6282 98.6113C83.6219 98.4601 83.676 98.3127 83.7784 98.2014C83.8809 98.0901 84.0234 98.024 84.1745 98.0178L90.2503 97.7661C90.4014 97.7599 90.5489 97.8139 90.6602 97.9163C90.7715 98.0188 90.8376 98.1613 90.8438 98.3124C90.8501 98.4636 90.796 98.6111 90.6936 98.7224C90.5911 98.8337 90.4486 98.8997 90.2975 98.906Z" fill="white"/>
<path d="M236.044 43.946L228.159 42.9117C227.99 42.89 227.829 42.8304 227.686 42.7373C227.544 42.6443 227.425 42.5203 227.338 42.3746C227.251 42.2325 227.198 42.0725 227.182 41.9068C227.166 41.7411 227.188 41.5739 227.245 41.4179C228.415 38.246 228.825 34.8443 228.442 31.4854C228.412 31.2284 228.472 30.969 228.612 30.7514C228.752 30.5338 228.963 30.3714 229.21 30.292C232.706 29.1824 235.725 29.6193 238.184 31.5902C238.313 31.6924 238.418 31.8214 238.492 31.9684C238.566 32.1154 238.607 32.2768 238.613 32.4413C238.715 36.0519 238.264 39.6569 237.276 43.1311C237.204 43.3929 237.039 43.6197 236.813 43.7695C236.586 43.9194 236.313 43.982 236.044 43.946Z" fill="#454545"/>
<path d="M236.602 38.7637L230.573 37.9729C230.498 37.9632 230.427 37.9389 230.362 37.9015C230.297 37.8641 230.24 37.8142 230.194 37.7548C230.149 37.6954 230.115 37.6276 230.096 37.5552C230.076 37.4829 230.071 37.4074 230.081 37.3332C230.091 37.2589 230.115 37.1873 230.153 37.1224C230.19 37.0575 230.24 37.0006 230.299 36.955C230.359 36.9093 230.427 36.8758 230.499 36.8564C230.571 36.837 230.647 36.832 230.721 36.8418L236.75 37.6326C236.9 37.6522 237.036 37.7307 237.128 37.8507C237.221 37.9706 237.261 38.1223 237.242 38.2723C237.222 38.4223 237.144 38.5584 237.024 38.6505C236.904 38.7427 236.752 38.7834 236.602 38.7637Z" fill="white"/>
<path d="M236.862 36.7805L230.833 35.9897C230.758 35.9801 230.687 35.9559 230.622 35.9185C230.557 35.8811 230.5 35.8313 230.454 35.7719C230.408 35.7124 230.374 35.6445 230.355 35.5721C230.335 35.4997 230.33 35.4241 230.34 35.3498C230.35 35.2754 230.374 35.2037 230.412 35.1387C230.449 35.0738 230.499 35.0169 230.559 34.9712C230.618 34.9256 230.686 34.8922 230.759 34.8728C230.831 34.8535 230.907 34.8486 230.981 34.8585L237.01 35.6493C237.085 35.6589 237.157 35.6831 237.222 35.7205C237.287 35.7578 237.344 35.8077 237.389 35.8671C237.435 35.9266 237.469 35.9944 237.488 36.0669C237.508 36.1393 237.513 36.2148 237.503 36.2892C237.493 36.3636 237.469 36.4353 237.431 36.5002C237.394 36.5652 237.344 36.6221 237.284 36.6678C237.225 36.7134 237.157 36.7468 237.084 36.7662C237.012 36.7855 236.936 36.7904 236.862 36.7805Z" fill="white"/>
<path d="M131.006 59.2289H128.381V56.6032C128.381 55.9731 128.13 55.3689 127.685 54.9233C127.239 54.4778 126.635 54.2275 126.005 54.2275C125.375 54.2275 124.771 54.4778 124.325 54.9233C123.88 55.3689 123.629 55.9731 123.629 56.6032V59.2289H121.004C120.374 59.2289 119.77 59.4791 119.324 59.9247C118.878 60.3702 118.628 60.9744 118.628 61.6045C118.628 62.2345 118.878 62.8388 119.324 63.2843C119.77 63.7298 120.374 63.9801 121.004 63.9801H123.629V66.6058C123.629 67.2359 123.88 67.8401 124.325 68.2856C124.771 68.7311 125.375 68.9814 126.005 68.9814C126.635 68.9814 127.239 68.7311 127.685 68.2856C128.13 67.8401 128.381 67.2359 128.381 66.6058V63.9801H131.006C131.636 63.9801 132.241 63.7298 132.686 63.2843C133.132 62.8388 133.382 62.2345 133.382 61.6045C133.382 60.9744 133.132 60.3702 132.686 59.9247C132.241 59.4791 131.636 59.2289 131.006 59.2289Z" fill="white"/>
<path d="M216.038 10.6369C217.42 10.6369 218.541 9.51606 218.541 8.1334C218.541 6.75075 217.42 5.62988 216.038 5.62988C214.655 5.62988 213.534 6.75075 213.534 8.1334C213.534 9.51606 214.655 10.6369 216.038 10.6369Z" fill="#3F3D56"/>
<path d="M62.2471 81.4055C63.6298 81.4055 64.7506 80.2846 64.7506 78.902C64.7506 77.5193 63.6298 76.3984 62.2471 76.3984C60.8645 76.3984 59.7436 77.5193 59.7436 78.902C59.7436 80.2846 60.8645 81.4055 62.2471 81.4055Z" fill="#3F3D56"/>
</g>
<defs>
<clipPath id="clip0_3163_338266">
<rect width="247.393" height="156" fill="white" transform="translate(0.803589)"/>
</clipPath>
</defs>
</svg>
