<svg width="223" height="158" viewBox="0 0 223 158" fill="none" xmlns="http://www.w3.org/2000/svg">
<g clip-path="url(#clip0_3163_338213)">
<path d="M113.88 157.167C120.557 157.167 125.97 151.735 125.97 145.035C125.97 138.334 120.557 132.902 113.88 132.902C107.203 132.902 101.79 138.334 101.79 145.035C101.79 151.735 107.203 157.167 113.88 157.167Z" fill="#454545"/>
<path d="M186.105 156.486C192.869 154.448 200.06 152.322 205.424 147.476C210.217 143.146 213.453 136.533 211.467 130.039C209.485 123.558 203.55 119.237 197.421 117.088C193.946 115.869 190.309 115.192 186.674 114.661C182.723 114.084 178.754 113.61 174.787 113.155C158.723 111.311 142.6 110.185 126.416 109.776C118.43 109.574 110.446 109.579 102.459 109.695C95.326 109.799 87.8138 109.797 81.1968 106.755C76.0511 104.389 71.3808 100.085 69.9471 94.4286C68.292 87.8995 71.3448 81.2506 75.7239 76.5221C78.0322 74.0296 80.73 71.9318 83.513 70.0029C86.5321 67.9103 89.6566 65.9658 92.8487 64.1508C99.1357 60.5777 105.709 57.5368 112.499 55.0597C115.849 53.8374 119.248 52.7828 122.678 51.8099C125.573 50.9884 128.478 50.1658 131.276 49.0465C136.686 46.8828 141.831 43.2177 143.207 37.2091C144.51 31.5143 142.312 25.3322 138.459 21.1017C134.001 16.2073 127.279 14.0618 120.834 13.7146C113.599 13.3249 106.53 15.142 99.7301 17.4482C92.4771 19.908 85.3804 22.7362 77.9741 24.7286C70.6297 26.7023 63.1433 28.0988 55.5827 28.9054C51.8816 29.3009 48.0686 29.7475 44.3454 29.4447C41.2251 29.191 38.1206 28.2701 35.821 26.0477C33.8492 24.1422 32.6745 21.5234 33.0784 18.7597C33.1517 18.2578 33.9116 18.4712 33.8387 18.9701C33.3471 22.3342 35.6258 25.4342 38.4339 27.0222C41.6793 28.8574 45.6284 28.8599 49.2416 28.65C57.0761 28.1752 64.8575 27.0463 72.5053 25.2752C80.02 23.5527 87.2664 21.0904 94.5046 18.4601C101.379 15.962 108.407 13.5238 115.751 12.9828C122.124 12.5133 128.827 13.4449 134.379 16.7869C139.258 19.724 142.845 24.6221 143.989 30.2429C145.106 35.7354 143.559 41.2637 139.415 45.0965C135.126 49.065 129.244 50.7616 123.763 52.3242C116.81 54.3061 110.007 56.6228 103.422 59.6309C96.7473 62.6713 90.3458 66.2829 84.2886 70.4256C78.4418 74.4352 72.6716 79.4803 70.8224 86.6334C69.9611 89.9654 70.1201 93.4993 71.5614 96.6465C72.8429 99.4449 74.9535 101.799 77.4123 103.614C83.2787 107.946 90.6724 108.836 97.7585 108.924C105.717 109.024 113.676 108.754 121.637 108.885C137.862 109.152 154.054 110.143 170.212 111.858C174.261 112.288 178.304 112.764 182.343 113.284C185.976 113.753 189.621 114.218 193.192 115.05C199.542 116.529 205.722 119.373 209.669 124.777C211.421 127.119 212.506 129.894 212.809 132.807C213.085 135.846 212.344 138.891 210.974 141.595C207.943 147.58 202.266 151.386 196.237 153.887C193.008 155.227 189.658 156.241 186.315 157.249C185.828 157.396 185.62 156.632 186.105 156.486L186.105 156.486Z" fill="#F2F2F2"/>
<path d="M33.5875 25.161C37.0712 25.161 39.8953 22.3269 39.8953 18.831C39.8953 15.335 37.0712 12.501 33.5875 12.501C30.1039 12.501 27.2798 15.335 27.2798 18.831C27.2798 22.3269 30.1039 25.161 33.5875 25.161Z" fill="#F2F2F2"/>
<path d="M77.3475 37.161C80.8312 37.161 83.6553 34.3269 83.6553 30.831C83.6553 27.335 80.8312 24.501 77.3475 24.501C73.8639 24.501 71.0398 27.335 71.0398 30.831C71.0398 34.3269 73.8639 37.161 77.3475 37.161Z" fill="#F2F2F2"/>
<path d="M114.406 13.16C117.889 13.16 120.713 10.3259 120.713 6.82999C120.713 3.33403 117.889 0.5 114.406 0.5C110.922 0.5 108.098 3.33403 108.098 6.82999C108.098 10.3259 110.922 13.16 114.406 13.16Z" fill="#F2F2F2"/>
<path d="M137.534 40.0623C141.018 40.0623 143.842 37.2283 143.842 33.7323C143.842 30.2364 141.018 27.4023 137.534 27.4023C134.05 27.4023 131.226 30.2364 131.226 33.7323C131.226 37.2283 134.05 40.0623 137.534 40.0623Z" fill="#F2F2F2"/>
<path d="M106.258 71.1854C109.742 71.1854 112.566 68.3513 112.566 64.8554C112.566 61.3594 109.742 58.5254 106.258 58.5254C102.774 58.5254 99.9503 61.3594 99.9503 64.8554C99.9503 68.3513 102.774 71.1854 106.258 71.1854Z" fill="#F2F2F2"/>
<path d="M66.5718 86.2186C70.0555 86.2186 72.8795 83.3845 72.8795 79.8886C72.8795 76.3926 70.0555 73.5586 66.5718 73.5586C63.0881 73.5586 60.264 76.3926 60.264 79.8886C60.264 83.3845 63.0881 86.2186 66.5718 86.2186Z" fill="#F2F2F2"/>
<path d="M108.623 109.692C112.107 109.692 114.931 106.858 114.931 103.362C114.931 99.8663 112.107 97.0322 108.623 97.0322C105.14 97.0322 102.316 99.8663 102.316 103.362C102.316 106.858 105.14 109.692 108.623 109.692Z" fill="#F2F2F2"/>
<path d="M153.829 122.88C157.313 122.88 160.137 120.046 160.137 116.55C160.137 113.054 157.313 110.22 153.829 110.22C150.345 110.22 147.521 113.054 147.521 116.55C147.521 120.046 150.345 122.88 153.829 122.88Z" fill="#F2F2F2"/>
<path d="M206.656 119.978C210.14 119.978 212.964 117.144 212.964 113.648C212.964 110.152 210.14 107.318 206.656 107.318C203.173 107.318 200.349 110.152 200.349 113.648C200.349 117.144 203.173 119.978 206.656 119.978Z" fill="#F2F2F2"/>
<path d="M112.585 18.4355C93.69 18.5694 78.2192 33.9782 77.9508 52.9382C77.9483 53.1133 77.9471 54.3442 77.9473 55.954C77.9474 58.3144 78.8818 60.5782 80.545 62.2473C82.2081 63.9164 84.4638 64.8542 86.8159 64.8545H86.816C87.9819 64.8543 89.1365 64.6234 90.2135 64.1753C91.2906 63.7271 92.2691 63.0703 93.0931 62.2425C93.9171 61.4146 94.5705 60.432 95.016 59.3506C95.4614 58.2693 95.6902 57.1105 95.6892 55.9404C95.6883 54.8453 95.6877 54.0873 95.6877 54.0408C95.6871 51.1105 96.4466 48.2306 97.8915 45.6843C99.3365 43.1379 101.417 41.0129 103.929 39.5183C106.44 38.0236 109.296 37.2108 112.216 37.1597C115.135 37.1087 118.018 37.8213 120.579 39.2272C123.141 40.6332 125.294 42.6843 126.827 45.1786C128.359 47.6728 129.218 50.5245 129.319 53.453C129.42 56.3815 128.76 59.2859 127.403 61.8807C126.046 64.4754 124.04 66.671 121.581 68.2514L121.584 68.2552C121.584 68.2552 108.961 76.4102 105.113 87.5974L105.116 87.5982C104.439 89.89 104.097 92.2679 104.098 94.6582C104.098 95.6408 104.156 104.238 104.267 111.216C104.306 113.623 105.286 115.919 106.997 117.608C108.708 119.296 111.011 120.242 113.411 120.242H113.411C114.616 120.242 115.81 120.003 116.923 119.538C118.036 119.073 119.047 118.392 119.897 117.534C120.747 116.676 121.419 115.657 121.875 114.537C122.332 113.417 122.563 112.218 122.555 111.008C122.517 104.617 122.496 97.1764 122.496 96.6363C122.496 89.767 129.099 82.9227 134.523 78.4594C140.77 73.3197 145.264 66.3156 147.07 58.4147C147.469 56.788 147.69 55.1222 147.727 53.4473C147.727 48.8281 146.816 44.2545 145.047 39.9901C143.278 35.7257 140.685 31.8548 137.418 28.6003C134.152 25.3458 130.276 22.7722 126.014 21.0276C121.752 19.2831 117.188 18.4021 112.585 18.4355Z" fill="#454545"/>
<path d="M222.187 157.5H0.812889C0.730049 157.5 0.650686 157.467 0.592194 157.408C0.533703 157.349 0.500854 157.269 0.500854 157.186C0.500854 157.103 0.533703 157.023 0.592194 156.964C0.650686 156.906 0.730049 156.872 0.812889 156.872H222.187C222.27 156.872 222.35 156.905 222.408 156.964C222.467 157.023 222.5 157.103 222.5 157.186C222.5 157.269 222.467 157.349 222.408 157.408C222.35 157.467 222.27 157.5 222.187 157.5Z" fill="#3F3D56"/>
<path d="M165.671 72.5027C170.025 72.5027 173.555 68.9602 173.555 64.5902C173.555 60.2203 170.025 56.6777 165.671 56.6777C161.316 56.6777 157.786 60.2203 157.786 64.5902C157.786 68.9602 161.316 72.5027 165.671 72.5027Z" fill="#2F2E41"/>
<path d="M151.101 154.037H147.879L146.346 141.564H151.101L151.101 154.037Z" fill="#A0616A"/>
<path d="M145.577 153.112H151.791V157.039H141.664C141.664 156.523 141.766 156.013 141.962 155.536C142.159 155.06 142.447 154.627 142.81 154.262C143.174 153.898 143.605 153.608 144.08 153.411C144.554 153.214 145.063 153.112 145.577 153.112Z" fill="#2F2E41"/>
<path d="M176.069 154.037H172.847L171.314 141.564H176.07L176.069 154.037Z" fill="#A0616A"/>
<path d="M170.545 153.112H176.759V157.039H166.633C166.633 156.523 166.734 156.013 166.93 155.536C167.127 155.06 167.415 154.627 167.779 154.262C168.142 153.898 168.573 153.608 169.048 153.411C169.523 153.214 170.031 153.112 170.545 153.112Z" fill="#2F2E41"/>
<path d="M164.473 72.5487C168.038 72.5487 170.928 69.6484 170.928 66.0707C170.928 62.4931 168.038 59.5928 164.473 59.5928C160.907 59.5928 158.017 62.4931 158.017 66.0707C158.017 69.6484 160.907 72.5487 164.473 72.5487Z" fill="#A0616A"/>
<path d="M168.32 93.4471L171.208 86.7875C171.91 85.2252 172.111 83.4829 171.784 81.8011C171.457 80.1193 170.617 78.5808 169.382 77.398C169.128 77.1462 168.858 76.911 168.575 76.6938C167.15 75.5749 165.393 74.9651 163.584 74.9609C162.367 74.9657 161.166 75.2338 160.062 75.7469C159.967 75.7891 159.875 75.834 159.781 75.8788C159.599 75.9658 159.421 76.0608 159.247 76.1584C158.116 76.8103 157.153 77.72 156.436 78.814C155.719 79.9081 155.269 81.1558 155.121 82.4567L153.846 93.1755C153.526 94.0168 142.088 124.401 146.088 147.598C146.13 147.845 146.251 148.073 146.431 148.247C146.612 148.421 146.843 148.533 147.092 148.566L151.147 149.119C151.443 149.16 151.744 149.087 151.988 148.914C152.232 148.741 152.402 148.482 152.464 148.188L159.268 115.639C159.311 115.437 159.42 115.255 159.577 115.122C159.735 114.989 159.932 114.913 160.138 114.906C160.344 114.899 160.546 114.961 160.713 115.083C160.879 115.205 161 115.379 161.056 115.578L170.67 149.808C170.738 150.056 170.886 150.276 171.091 150.432C171.295 150.588 171.545 150.673 171.802 150.673C171.879 150.672 171.956 150.665 172.031 150.652L176.985 149.694C177.273 149.64 177.531 149.48 177.707 149.246C177.884 149.011 177.967 148.719 177.939 148.426C177.211 140.279 173.342 99.4686 168.32 93.4471Z" fill="#2F2E41"/>
<path d="M139.386 71.4615C139.341 71.8466 139.381 72.2369 139.503 72.6049C139.625 72.9728 139.825 73.3095 140.091 73.5913C140.356 73.873 140.68 74.0929 141.039 74.2354C141.399 74.378 141.785 74.4397 142.17 74.4164L145.779 83.1181L148.508 79.0578L144.663 71.417C144.581 70.7694 144.265 70.1746 143.775 69.7451C143.285 69.3157 142.655 69.0815 142.005 69.087C141.354 69.0925 140.729 69.3372 140.246 69.7749C139.763 70.2125 139.457 70.8126 139.386 71.4615L139.386 71.4615Z" fill="#A0616A"/>
<path d="M164.115 102.208C164.498 102.162 164.867 102.033 165.195 101.828C165.524 101.623 165.803 101.349 166.014 101.024C166.225 100.7 166.363 100.332 166.418 99.9486C166.472 99.5647 166.442 99.1735 166.329 98.8026L173.921 93.2537L169.35 91.5361L162.842 97.0688C162.234 97.2998 161.731 97.7467 161.429 98.3249C161.127 98.9031 161.047 99.5724 161.203 100.206C161.36 100.839 161.743 101.393 162.28 101.762C162.816 102.131 163.469 102.29 164.115 102.208Z" fill="#A0616A"/>
<path d="M151.739 88.9192C151.448 88.9189 151.157 88.8902 150.872 88.8335C150.181 88.7016 149.534 88.4012 148.986 87.9589C148.439 87.5166 148.008 86.946 147.732 86.2972L142.677 80.1114C142.57 79.9807 142.492 79.8285 142.448 79.6651C142.405 79.5017 142.397 79.3308 142.424 79.164C142.452 78.9971 142.515 78.8381 142.609 78.6977C142.703 78.5572 142.825 78.4384 142.969 78.3494L146.565 76.1153C146.698 76.0328 146.846 75.9775 147 75.9526C147.154 75.9277 147.312 75.9337 147.464 75.9702C147.615 76.0068 147.759 76.0731 147.885 76.1655C148.011 76.2578 148.118 76.3744 148.199 76.5083L151.762 82.3989L158.585 77.3385C159.128 77.0526 159.756 76.9724 160.353 77.1126C160.95 77.2528 161.477 77.6039 161.838 78.1019C162.199 78.5998 162.369 79.2114 162.317 79.8248C162.266 80.4382 161.996 81.0125 161.557 81.4428L154.747 87.677C153.947 88.473 152.866 88.9195 151.739 88.9192Z" fill="#2F2E41"/>
<path d="M170.176 98.2227C170.166 98.2227 170.157 98.2227 170.148 98.2225C169.982 98.2184 169.819 98.1795 169.669 98.1081C169.519 98.0368 169.386 97.9346 169.278 97.8083L166.08 94.0648C165.971 93.9373 165.891 93.7881 165.843 93.627C165.796 93.4659 165.784 93.2965 165.807 93.1302C165.829 92.9638 165.887 92.8043 165.976 92.662C166.065 92.5197 166.183 92.398 166.322 92.3048L172.31 88.2991L166.885 81.7549C166.57 81.227 166.454 80.6028 166.559 79.9963C166.664 79.3899 166.984 78.8416 167.458 78.4518C167.933 78.0619 168.532 77.8565 169.145 77.873C169.758 77.8895 170.345 78.1269 170.798 78.5417L177.391 85.0069C177.909 85.4826 178.306 86.0775 178.545 86.7406C178.784 87.4037 178.86 88.1151 178.765 88.8139C178.67 89.5127 178.407 90.1779 177.999 90.7524C177.592 91.3269 177.051 91.7936 176.425 92.1124L171.036 97.85C170.926 97.9676 170.792 98.0614 170.644 98.1254C170.496 98.1895 170.337 98.2226 170.176 98.2227Z" fill="#2F2E41"/>
<path d="M162.831 84.4293C162.78 84.4293 162.729 84.4261 162.678 84.4196C162.455 84.3924 162.245 84.3017 162.072 84.1582C161.899 84.0148 161.771 83.8245 161.702 83.6101L159.3 76.2174C159.239 76.0305 159.249 75.8281 159.326 75.6475C159.403 75.4669 159.542 75.3204 159.719 75.2351L159.797 75.1981C159.867 75.1644 159.937 75.131 160.009 75.0991C161.129 74.5776 162.349 74.3056 163.584 74.3018C165.187 74.3047 166.755 74.7774 168.094 75.6618C168.274 75.7818 168.399 75.9677 168.444 76.1795C168.488 76.3914 168.448 76.6122 168.331 76.7945L163.824 83.8809C163.718 84.0491 163.572 84.1877 163.398 84.2836C163.224 84.3796 163.029 84.4297 162.831 84.4293Z" fill="#E6E6E6"/>
<path d="M171.887 61.0572C173.312 61.0572 174.467 59.898 174.467 58.4681C174.467 57.0381 173.312 55.8789 171.887 55.8789C170.462 55.8789 169.307 57.0381 169.307 58.4681C169.307 59.898 170.462 61.0572 171.887 61.0572Z" fill="#2F2E41"/>
<path d="M163.043 55.623C161.23 55.623 159.492 56.3455 158.211 57.6316C156.929 58.9176 156.209 60.6618 156.209 62.4805V65.3818H159.765L161.466 62.4805L161.976 65.3818H172.767L169.876 62.4805C169.876 60.6618 169.156 58.9176 167.874 57.6316C166.593 56.3455 164.855 55.623 163.043 55.623Z" fill="#2F2E41"/>
<path d="M173.213 56.6946C173.498 55.7993 174.089 55.0337 174.881 54.5322C175.674 54.0307 176.617 53.8256 177.545 53.9528C179.189 54.2286 180.489 55.555 181.263 57.0363C182.038 58.5177 182.396 60.1756 182.916 61.7648C183.437 63.354 184.176 64.9519 185.49 65.9806C186.805 67.0093 188.822 67.2884 190.113 66.2301C189.966 67.333 189.476 68.3614 188.715 69.17C187.953 69.9785 186.957 70.5262 185.868 70.7356C184.779 70.9451 183.652 70.8056 182.646 70.3369C181.64 69.8683 180.807 69.0942 180.263 68.1242C179.582 66.9078 179.406 65.4822 179.204 64.1017C179.002 62.7212 178.74 61.2928 177.926 60.1612C177.113 59.0295 175.591 58.2904 174.298 58.8059L173.213 56.6946Z" fill="#2F2E41"/>
<path d="M89.3201 60.6449C86.968 60.6446 84.7122 59.7068 83.0491 58.0377C81.3859 56.3686 80.4515 54.1048 80.4514 51.7444C80.4512 50.1346 80.4524 48.9037 80.4548 48.7286C80.5296 43.2145 81.9134 37.7978 84.4915 32.9277C80.2557 38.7468 77.9267 45.7431 77.8266 52.9486C77.8242 53.1237 77.823 54.3545 77.8231 55.9644C77.8233 58.3248 78.7577 60.5886 80.4208 62.2577C82.084 63.9268 84.3397 64.8646 86.6919 64.8649C88.6247 64.8642 90.5044 64.2303 92.0455 63.0597C93.5867 61.8891 94.7049 60.2457 95.2304 58.3792C93.6065 59.8405 91.5013 60.6476 89.3201 60.6449Z" fill="#3F3D56"/>
<path d="M113.186 37.1896C115.905 37.3199 118.552 38.1106 120.9 39.4937C123.248 40.8768 125.226 42.811 126.664 45.1303C128.103 47.4496 128.959 50.0846 129.16 52.8091C129.36 55.5336 128.898 58.2662 127.815 60.7722C129.382 58.9246 130.535 56.7594 131.193 54.4243C131.851 52.0893 132 49.6392 131.629 47.2412C131.258 44.8432 130.377 42.5536 129.044 40.5285C127.712 38.5035 125.96 36.7905 123.908 35.5065C121.856 34.2225 119.552 33.3976 117.154 33.0881C114.755 32.7785 112.318 32.9916 110.01 33.7128C107.701 34.434 105.574 35.6463 103.774 37.2671C101.974 38.8879 100.544 40.8791 99.5806 43.1049C101.246 41.1393 103.338 39.5837 105.697 38.5581C108.056 37.5325 110.618 37.0643 113.186 37.1896Z" fill="#3F3D56"/>
<path d="M115.915 116.032C113.515 116.033 111.212 115.087 109.501 113.398C107.79 111.71 106.81 109.414 106.771 107.006C106.66 100.029 106.602 91.4313 106.602 90.4488C106.601 88.0585 106.943 85.6805 107.62 83.3887L107.617 83.3879C108.017 82.2376 108.499 81.118 109.061 80.0381C107.336 82.3444 105.964 84.8957 104.989 87.6079L104.992 87.6087C104.315 89.9005 103.972 92.2785 103.974 94.6688C103.974 95.6513 104.032 104.248 104.143 111.226C104.182 113.634 105.162 115.93 106.873 117.618C108.583 119.307 110.887 120.253 113.286 120.252C115.265 120.252 117.19 119.608 118.773 118.417C120.355 117.226 121.511 115.552 122.065 113.646C120.384 115.184 118.19 116.036 115.915 116.032Z" fill="#3F3D56"/>
<path d="M33.7579 154.157L36.9798 154.157L38.5129 141.685L33.7571 141.685L33.7579 154.157Z" fill="#FFB8B8"/>
<path d="M43.1942 157.158L33.0675 157.159L33.0673 153.232L39.2814 153.232C40.3191 153.232 41.3143 153.646 42.0481 154.382C42.7819 155.118 43.1942 156.117 43.1942 157.158L43.1942 157.158Z" fill="#2F2E41"/>
<path d="M22.1937 154.157L25.4156 154.157L26.9486 141.685L22.1929 141.685L22.1937 154.157Z" fill="#FFB8B8"/>
<path d="M31.63 157.158L21.5033 157.159L21.5031 153.232L27.7172 153.232C28.7549 153.232 29.7501 153.646 30.4839 154.382C31.2177 155.118 31.63 156.117 31.63 157.158L31.63 157.158Z" fill="#2F2E41"/>
<path d="M25.0094 150.32L21.8621 150.154C21.6998 150.146 21.5408 150.105 21.3943 150.034C21.2479 149.964 21.1168 149.864 21.0088 149.743C20.9008 149.621 20.818 149.479 20.7651 149.324C20.7122 149.17 20.6903 149.007 20.7008 148.844L24.4625 107.049L41.7854 111.74L43.4544 111.283L38.2352 148.283C38.1907 148.561 38.053 148.816 37.8447 149.005C37.6364 149.194 37.3701 149.307 37.0897 149.323L33.697 149.482C33.5273 149.491 33.3576 149.465 33.1984 149.406C33.0393 149.346 32.8942 149.254 32.7724 149.135C32.6506 149.016 32.5547 148.873 32.4908 148.715C32.4268 148.557 32.3962 148.388 32.4009 148.217L33.0156 126.01C33.0185 125.908 32.9829 125.808 32.916 125.73C32.849 125.652 32.7554 125.603 32.6538 125.591C32.5521 125.579 32.4496 125.605 32.3666 125.666C32.2836 125.726 32.2261 125.815 32.2053 125.915L26.2768 149.34C26.2208 149.618 26.0706 149.867 25.8516 150.047C25.6326 150.226 25.3585 150.323 25.0759 150.322C25.0539 150.322 25.0317 150.322 25.0094 150.32Z" fill="#2F2E41"/>
<path d="M34.3363 72.8514C37.9014 72.8514 40.7915 69.9511 40.7915 66.3735C40.7915 62.7958 37.9014 59.8955 34.3363 59.8955C30.7712 59.8955 27.8811 62.7958 27.8811 66.3735C27.8811 69.9511 30.7712 72.8514 34.3363 72.8514Z" fill="#FFB8B8"/>
<path d="M23.589 85.406L24.2987 100.774L24.5553 106.365C24.5655 106.608 24.6479 106.843 24.7918 107.039C24.9357 107.236 25.1347 107.384 25.3633 107.466L42.0095 113.518C42.1439 113.568 42.2864 113.593 42.4298 113.592C42.5938 113.592 42.7562 113.56 42.9075 113.496C43.0587 113.433 43.1956 113.339 43.31 113.221C43.4244 113.104 43.514 112.964 43.5733 112.81C43.6327 112.657 43.6607 112.493 43.6556 112.329L42.9731 84.6965C42.9283 82.4294 42.0967 80.249 40.6217 78.5313C39.1467 76.8135 37.1207 75.666 34.893 75.2866C34.732 75.262 34.5682 75.2373 34.4043 75.2154C33.023 75.0433 31.6208 75.1771 30.2965 75.6073C28.9722 76.0375 27.7579 76.7537 26.7391 77.7055C25.6841 78.6792 24.8552 79.8736 24.3108 81.2042C23.7665 82.5349 23.5201 83.9692 23.5889 85.4059L23.589 85.406Z" fill="#CCCCCC"/>
<path d="M49.9612 110.451C49.5675 110.328 49.2078 110.115 48.9108 109.828C48.6138 109.541 48.3878 109.189 48.2507 108.798C48.1136 108.408 48.0693 107.991 48.1213 107.581C48.1733 107.171 48.3202 106.778 48.5502 106.435L42.9053 98.9022L47.7765 98.5996L52.3902 105.799C52.8841 106.182 53.2278 106.728 53.361 107.34C53.4942 107.952 53.4084 108.592 53.1186 109.147C52.8288 109.702 52.3536 110.136 51.7762 110.375C51.1989 110.613 50.5563 110.64 49.9612 110.451H49.9612Z" fill="#FFB8B8"/>
<path d="M45.9923 105.071C45.8428 105.01 45.7067 104.92 45.5921 104.806C45.4775 104.692 45.3865 104.557 45.3245 104.407L36.82 84.0735C36.6531 83.6754 36.566 83.2482 36.5638 82.8163C36.5615 82.3844 36.6441 81.9563 36.8067 81.5564C36.9694 81.1566 37.209 80.7928 37.5119 80.4859C37.8147 80.179 38.1748 79.935 38.5717 79.7679C38.9685 79.6007 39.3943 79.5137 39.8247 79.5118C40.255 79.5098 40.6816 79.593 41.0799 79.7566C41.4782 79.9201 41.8405 80.1609 42.1461 80.465C42.4517 80.7691 42.6945 81.1307 42.8608 81.5291L51.3653 101.863C51.491 102.164 51.4924 102.504 51.3692 102.806C51.246 103.109 51.0082 103.35 50.7081 103.477L46.9325 105.067C46.7839 105.13 46.6243 105.163 46.4629 105.164C46.3015 105.164 46.1415 105.133 45.9923 105.071L45.9923 105.071Z" fill="#CCCCCC"/>
<path d="M32.261 104.355L40.4293 88.6595C40.5868 88.3576 40.8572 88.1308 41.1812 88.0288C41.5051 87.9267 41.8562 87.9578 42.1573 88.1152L54.0137 94.3292C54.3145 94.4873 54.5405 94.7586 54.6422 95.0837C54.7438 95.4088 54.7128 95.7611 54.556 96.0633L46.3877 111.759C46.2301 112.061 45.9597 112.287 45.6358 112.389C45.3118 112.491 44.9607 112.46 44.6596 112.303L32.8033 106.089C32.5025 105.931 32.2765 105.66 32.1748 105.334C32.0731 105.009 32.1041 104.657 32.261 104.355Z" fill="#3F3D56"/>
<path d="M37.7389 97.1834C37.5937 96.7962 37.3603 96.4485 37.0574 96.1679C36.7545 95.8873 36.3904 95.6817 35.9942 95.5674C35.598 95.4531 35.1807 95.4334 34.7755 95.5097C34.3704 95.586 33.9886 95.7563 33.6607 96.007L25.8342 90.7969L25.8209 95.6946L33.2551 99.8914C33.6655 100.364 34.2284 100.676 34.8452 100.773C35.4619 100.87 36.0931 100.746 36.628 100.423C37.163 100.1 37.5675 99.5986 37.7706 99.0061C37.9737 98.4137 37.9625 97.7684 37.7389 97.1834Z" fill="#FFB8B8"/>
<path d="M27.8436 98.2846L21.4473 93.2001C20.7554 92.967 20.1301 92.5688 19.6253 92.0397C19.1205 91.5107 18.7511 90.8666 18.5489 90.1628C18.3467 89.459 18.3177 88.7164 18.4644 87.9989C18.6111 87.2814 18.9291 86.6103 19.3912 86.0432L25.1988 78.4052C25.6024 77.9102 26.17 77.5776 26.7978 77.4681C27.4256 77.3585 28.0718 77.4794 28.6181 77.8086C29.1645 78.1378 29.5746 78.6533 29.7734 79.2608C29.9722 79.8684 29.9464 80.5275 29.7008 81.1177L25.1057 88.6609L31.8587 91.8752C32.0157 91.9499 32.1551 92.0572 32.2678 92.1901C32.3804 92.3229 32.4637 92.4782 32.5121 92.6457C32.5605 92.8132 32.5729 92.9891 32.5485 93.1618C32.5241 93.3345 32.4635 93.5 32.3707 93.6475L29.6448 97.9767C29.5526 98.1228 29.4309 98.2478 29.2875 98.3438C29.1442 98.4397 28.9823 98.5043 28.8125 98.5335C28.8057 98.5346 28.7989 98.5357 28.7921 98.5367C28.6253 98.562 28.455 98.5527 28.2918 98.5093C28.1287 98.466 27.9761 98.3895 27.8436 98.2846Z" fill="#CCCCCC"/>
<path d="M29.4587 70.7114C29.431 70.6301 29.4222 70.5435 29.433 70.4583C29.4438 70.373 29.4739 70.2914 29.521 70.2196C29.5681 70.1479 29.6309 70.0879 29.7047 70.0442C29.7785 70.0006 29.8612 69.9745 29.9466 69.9679C30.1214 69.9774 30.2925 70.0224 30.4495 70.1002C30.6065 70.1779 30.7462 70.2868 30.8602 70.4202C31.0938 70.6905 31.3658 70.9249 31.6673 71.1157C31.9796 71.2737 32.4031 71.2512 32.5811 70.9501C32.7483 70.6673 32.6338 70.2886 32.5326 69.9601C32.275 69.1243 32.1309 68.2576 32.1042 67.3832C32.075 66.4073 32.2122 65.3888 32.7506 64.6276C33.4455 63.6452 34.688 63.2722 35.8639 63.2992C37.0398 63.3263 38.1966 63.6906 39.3613 63.9208C39.7634 64.0003 40.2361 64.0409 40.505 63.7282C40.791 63.3957 40.6859 62.8575 40.5643 62.4085C40.2487 61.2434 39.9138 60.0388 39.1805 59.0978C38.3875 58.1201 37.2549 57.4801 36.0106 57.3069C34.816 57.1584 33.6034 57.2966 32.4724 57.71C30.6297 58.2929 29.0083 59.4264 27.8249 60.9591C26.6051 62.589 26.078 64.6373 26.3589 66.6561C26.6333 68.4144 27.5618 70.003 28.9571 71.1015L29.4587 70.7114Z" fill="#2F2E41"/>
<path d="M111.216 154.208C109.499 153.457 107.979 152.316 106.776 150.875C105.573 149.434 104.721 147.732 104.286 145.903C103.85 144.075 103.845 142.17 104.269 140.339C104.693 138.508 105.536 136.801 106.73 135.353C105.345 136.367 104.191 137.665 103.345 139.162C102.499 140.658 101.979 142.317 101.821 144.031C101.663 145.744 101.869 147.471 102.427 149.098C102.985 150.724 103.881 152.214 105.056 153.466C106.231 154.719 107.658 155.706 109.243 156.363C110.827 157.02 112.533 157.331 114.247 157.276C115.96 157.221 117.642 156.801 119.181 156.043C120.721 155.286 122.082 154.208 123.174 152.882C121.47 154.132 119.469 154.912 117.371 155.145C115.273 155.377 113.151 155.054 111.216 154.208Z" fill="#3F3D56"/>
</g>
<defs>
<clipPath id="clip0_3163_338213">
<rect width="222" height="157" fill="white" transform="translate(0.5 0.5)"/>
</clipPath>
</defs>
</svg>
