<svg width="1368" height="306" viewBox="0 0 1368 306" fill="none" xmlns="http://www.w3.org/2000/svg">
<rect x="-66.5212" y="130" width="1502" height="176" fill="#F9F9F9"/>
<path opacity="0.65" d="M643.371 47.5855C337.389 -79.5665 248.55 96.5456 162.713 47.5855C32.6067 -27.0065 -66.4362 58.5296 -66.4362 58.5296V144.498H1434.21V58.5296C1434.21 58.5296 1341.02 20.9456 1291.8 16.3376C1242.58 11.5856 1197.56 34.0496 1178.05 48.1616C1143.09 73.0736 1052 131.97 976.366 137.73C900.733 143.49 672.484 59.5376 643.371 47.5855Z" fill="#F9F9F9"/>
<path opacity="0.85" d="M1035.04 47.5855C966.761 47.5855 919.191 80.9936 841.307 103.89C798.388 116.418 615.759 118.434 460.142 47.5855C304.524 -23.2625 322.532 97.1216 236.245 47.5855C107.189 -25.8544 -66.4362 87.1856 -66.4362 87.1856V144.498H1434.21V91.9376C1434.21 91.9376 1391.9 118.578 1296 118.578C1149.39 118.434 1097.62 47.5855 1035.04 47.5855Z" fill="#F9F9F9"/>
<path d="M1083.21 102.882C783.082 185.682 684.039 8.56155 490.305 74.8016C296.721 141.906 296.721 136.722 210.884 114.834C125.647 92.9456 132.1 79.8416 68.4722 68.8976C-23.5176 52.7696 -66.4362 144.498 -66.4362 144.498H1434.21C1434.21 144.498 1419.36 85.6016 1308.76 75.2336C1198.16 64.8656 1178.5 76.8176 1083.21 102.882Z" fill="#F9F9F9"/>
</svg>
